<svg width="750" height="500" viewBox="0 0 750 500" fill="none" xmlns="http://www.w3.org/2000/svg">
<path d="M87.0846 328.449H191.239V248.117H87.0846L87.0846 328.449Z" fill="#DCE9F1"/>
<path d="M113.18 327.882C113.324 327.882 113.44 309.976 113.44 287.892C113.44 265.801 113.323 247.899 113.18 247.899C113.036 247.899 112.92 265.801 112.92 287.892C112.919 309.975 113.036 327.882 113.18 327.882Z" fill="#A3C7E2"/>
<path d="M95.9158 319.19H103.901V310.164H95.9158V319.19Z" fill="#0D4C7B"/>
<path d="M159.463 248.323H147.633V265.464H159.463V248.323Z" fill="#A3C7E2"/>
<path d="M159.463 311.069H147.633V328.21H159.463V311.069Z" fill="#A3C7E2"/>
<path d="M230.929 329.579H58.9919V462.192H230.929V329.579Z" fill="#A3C7E2"/>
<path d="M187.851 461.256C187.663 461.256 187.51 431.697 187.51 395.242C187.51 358.774 187.663 329.221 187.851 329.221C188.039 329.221 188.192 358.774 188.192 395.242C188.192 431.696 188.039 461.256 187.851 461.256Z" fill="#658CD0"/>
<path d="M216.351 432.007H203.169V446.908H216.351V432.007Z" fill="#0D4C7B"/>
<path d="M130.975 329.921H111.445V358.218H130.975V329.921Z" fill="#658CD0"/>
<path d="M130.975 433.501H111.445V461.797H130.975V433.501Z" fill="#658CD0"/>
<path d="M365.26 95.977C365.26 96.121 364.141 96.237 362.76 96.237C361.379 96.237 360.26 96.12 360.26 95.977C360.26 95.834 361.379 95.717 362.76 95.717C364.141 95.716 365.26 95.833 365.26 95.977Z" fill="#A3C7E2"/>
<path d="M375.26 95.977C375.26 96.121 374.141 96.237 372.76 96.237C371.379 96.237 370.26 96.12 370.26 95.977C370.26 95.834 371.379 95.717 372.76 95.717C374.141 95.716 375.26 95.833 375.26 95.977Z" fill="#A3C7E2"/>
<path d="M385.26 95.977C385.26 96.121 384.141 96.237 382.76 96.237C381.379 96.237 380.26 96.12 380.26 95.977C380.26 95.834 381.379 95.717 382.76 95.717C384.141 95.716 385.26 95.833 385.26 95.977Z" fill="#A3C7E2"/>
<path d="M395.26 95.977C395.26 96.121 394.141 96.237 392.76 96.237C391.379 96.237 390.26 96.12 390.26 95.977C390.26 95.834 391.379 95.717 392.76 95.717C394.141 95.716 395.26 95.833 395.26 95.977Z" fill="#A3C7E2"/>
<path d="M405.26 95.977C405.26 96.121 404.141 96.237 402.76 96.237C401.379 96.237 400.26 96.12 400.26 95.977C400.26 95.834 401.379 95.717 402.76 95.717C404.141 95.716 405.26 95.833 405.26 95.977Z" fill="#A3C7E2"/>
<path d="M415.26 95.977C415.26 96.121 414.141 96.237 412.76 96.237C411.379 96.237 410.26 96.12 410.26 95.977C410.26 95.834 411.379 95.717 412.76 95.717C414.141 95.716 415.26 95.833 415.26 95.977Z" fill="#A3C7E2"/>
<path d="M425.26 95.977C425.26 96.121 424.141 96.237 422.76 96.237C421.379 96.237 420.26 96.12 420.26 95.977C420.26 95.834 421.379 95.717 422.76 95.717C424.141 95.716 425.26 95.833 425.26 95.977Z" fill="#A3C7E2"/>
<path d="M435.26 95.977C435.26 96.121 434.141 96.237 432.76 96.237C431.379 96.237 430.26 96.12 430.26 95.977C430.26 95.834 431.379 95.717 432.76 95.717C434.141 95.716 435.26 95.833 435.26 95.977Z" fill="#A3C7E2"/>
<path d="M445.26 95.977C445.26 96.121 444.141 96.237 442.76 96.237C441.379 96.237 440.26 96.12 440.26 95.977C440.26 95.834 441.379 95.717 442.76 95.717C444.141 95.716 445.26 95.833 445.26 95.977Z" fill="#A3C7E2"/>
<path d="M455.26 95.977C455.26 96.121 454.141 96.237 452.76 96.237C451.379 96.237 450.26 96.12 450.26 95.977C450.26 95.834 451.379 95.717 452.76 95.717C454.141 95.716 455.26 95.833 455.26 95.977Z" fill="#A3C7E2"/>
<path d="M465.26 95.977C465.26 96.121 464.141 96.237 462.76 96.237C461.379 96.237 460.26 96.12 460.26 95.977C460.26 95.834 461.379 95.717 462.76 95.717C464.141 95.716 465.26 95.833 465.26 95.977Z" fill="#A3C7E2"/>
<path d="M475.26 95.977C475.26 96.121 474.141 96.237 472.76 96.237C471.379 96.237 470.26 96.12 470.26 95.977C470.26 95.834 471.379 95.717 472.76 95.717C474.141 95.716 475.26 95.833 475.26 95.977Z" fill="#A3C7E2"/>
<path d="M485.26 95.977C485.26 96.121 484.141 96.237 482.76 96.237C481.379 96.237 480.26 96.12 480.26 95.977C480.26 95.834 481.379 95.717 482.76 95.717C484.141 95.716 485.26 95.833 485.26 95.977Z" fill="#A3C7E2"/>
<path d="M495.26 95.977C495.26 96.121 494.141 96.237 492.76 96.237C491.379 96.237 490.26 96.12 490.26 95.977C490.26 95.834 491.379 95.717 492.76 95.717C494.141 95.716 495.26 95.833 495.26 95.977Z" fill="#A3C7E2"/>
<path d="M505.26 95.977C505.26 96.121 504.141 96.237 502.76 96.237C501.379 96.237 500.26 96.12 500.26 95.977C500.26 95.834 501.379 95.717 502.76 95.717C504.141 95.716 505.26 95.833 505.26 95.977Z" fill="#A3C7E2"/>
<path d="M515.26 95.977C515.26 96.121 514.141 96.237 512.76 96.237C511.379 96.237 510.26 96.12 510.26 95.977C510.26 95.834 511.379 95.717 512.76 95.717C514.141 95.716 515.26 95.833 515.26 95.977Z" fill="#A3C7E2"/>
<path d="M525.26 95.977C525.26 96.121 524.141 96.237 522.76 96.237C521.379 96.237 520.26 96.12 520.26 95.977C520.26 95.834 521.379 95.717 522.76 95.717C524.141 95.716 525.26 95.833 525.26 95.977Z" fill="#A3C7E2"/>
<path d="M535.26 95.977C535.26 96.121 534.141 96.237 532.76 96.237C531.379 96.237 530.26 96.12 530.26 95.977C530.26 95.834 531.379 95.717 532.76 95.717C534.141 95.716 535.26 95.833 535.26 95.977Z" fill="#A3C7E2"/>
<path d="M545.26 95.977C545.26 96.121 544.141 96.237 542.76 96.237C541.379 96.237 540.26 96.12 540.26 95.977C540.26 95.834 541.379 95.717 542.76 95.717C544.141 95.716 545.26 95.833 545.26 95.977Z" fill="#A3C7E2"/>
<path d="M555.26 95.977C555.26 96.121 554.141 96.237 552.76 96.237C551.379 96.237 550.26 96.12 550.26 95.977C550.26 95.834 551.379 95.717 552.76 95.717C554.141 95.716 555.26 95.833 555.26 95.977Z" fill="#A3C7E2"/>
<path d="M565.26 95.977C565.26 96.121 564.141 96.237 562.76 96.237C561.379 96.237 560.26 96.12 560.26 95.977C560.26 95.834 561.379 95.717 562.76 95.717C564.141 95.716 565.26 95.833 565.26 95.977Z" fill="#A3C7E2"/>
<path d="M575.26 95.977C575.26 96.121 574.141 96.237 572.76 96.237C571.379 96.237 570.26 96.12 570.26 95.977C570.26 95.834 571.379 95.717 572.76 95.717C574.141 95.716 575.26 95.833 575.26 95.977Z" fill="#A3C7E2"/>
<path d="M585.26 95.977C585.26 96.121 584.141 96.237 582.76 96.237C581.379 96.237 580.26 96.12 580.26 95.977C580.26 95.834 581.379 95.717 582.76 95.717C584.141 95.716 585.26 95.833 585.26 95.977Z" fill="#A3C7E2"/>
<path d="M587.823 103.414C587.679 103.414 587.563 102.295 587.563 100.914C587.563 99.533 587.68 98.414 587.823 98.414C587.967 98.414 588.083 99.533 588.083 100.914C588.083 102.295 587.966 103.414 587.823 103.414Z" fill="#A3C7E2"/>
<path d="M587.823 113.414C587.679 113.414 587.563 112.295 587.563 110.914C587.563 109.533 587.68 108.414 587.823 108.414C587.967 108.414 588.083 109.533 588.083 110.914C588.083 112.295 587.966 113.414 587.823 113.414Z" fill="#A3C7E2"/>
<path d="M587.823 123.414C587.679 123.414 587.563 122.295 587.563 120.914C587.563 119.533 587.68 118.414 587.823 118.414C587.967 118.414 588.083 119.533 588.083 120.914C588.083 122.295 587.966 123.414 587.823 123.414Z" fill="#A3C7E2"/>
<path d="M587.823 133.414C587.679 133.414 587.563 132.295 587.563 130.914C587.563 129.533 587.68 128.414 587.823 128.414C587.967 128.414 588.083 129.533 588.083 130.914C588.083 132.295 587.966 133.414 587.823 133.414Z" fill="#A3C7E2"/>
<path d="M587.823 143.414C587.679 143.414 587.563 142.295 587.563 140.914C587.563 139.533 587.68 138.414 587.823 138.414C587.967 138.414 588.083 139.533 588.083 140.914C588.083 142.295 587.966 143.414 587.823 143.414Z" fill="#A3C7E2"/>
<path d="M589.772 151.464C589.772 151.588 588.939 151.692 587.822 151.718L587.571 151.724L587.568 151.464C587.566 151.276 587.564 151.097 587.562 150.914C587.562 149.533 587.679 148.414 587.822 148.414C587.966 148.414 588.082 149.533 588.082 150.914C588.08 151.097 588.078 151.276 588.076 151.464L587.822 151.21C588.939 151.236 589.772 151.34 589.772 151.464Z" fill="#A3C7E2"/>
<path d="M599.772 151.464C599.772 151.608 598.653 151.724 597.272 151.724C595.891 151.724 594.772 151.607 594.772 151.464C594.772 151.32 595.891 151.204 597.272 151.204C598.653 151.204 599.772 151.321 599.772 151.464Z" fill="#A3C7E2"/>
<path d="M609.772 151.464C609.772 151.608 608.653 151.724 607.272 151.724C605.891 151.724 604.772 151.607 604.772 151.464C604.772 151.32 605.891 151.204 607.272 151.204C608.653 151.204 609.772 151.321 609.772 151.464Z" fill="#A3C7E2"/>
<path d="M619.772 151.464C619.772 151.608 618.653 151.724 617.272 151.724C615.891 151.724 614.772 151.607 614.772 151.464C614.772 151.32 615.891 151.204 617.272 151.204C618.653 151.204 619.772 151.321 619.772 151.464Z" fill="#A3C7E2"/>
<path d="M629.772 151.464C629.772 151.608 628.653 151.724 627.272 151.724C625.891 151.724 624.772 151.607 624.772 151.464C624.772 151.32 625.891 151.204 627.272 151.204C628.653 151.204 629.772 151.321 629.772 151.464Z" fill="#A3C7E2"/>
<path d="M639.772 151.464C639.772 151.608 638.653 151.724 637.272 151.724C635.891 151.724 634.772 151.607 634.772 151.464C634.772 151.32 635.891 151.204 637.272 151.204C638.653 151.204 639.772 151.321 639.772 151.464Z" fill="#A3C7E2"/>
<path d="M649.772 151.464C649.772 151.608 648.653 151.724 647.272 151.724C645.891 151.724 644.772 151.607 644.772 151.464C644.772 151.32 645.891 151.204 647.272 151.204C648.653 151.204 649.772 151.321 649.772 151.464Z" fill="#A3C7E2"/>
<path d="M659.772 151.464C659.772 151.608 658.653 151.724 657.272 151.724C655.891 151.724 654.772 151.607 654.772 151.464C654.772 151.32 655.891 151.204 657.272 151.204C658.653 151.204 659.772 151.321 659.772 151.464Z" fill="#A3C7E2"/>
<path d="M669.772 151.464C669.772 151.608 668.653 151.724 667.272 151.724C665.891 151.724 664.772 151.607 664.772 151.464C664.772 151.32 665.891 151.204 667.272 151.204C668.653 151.204 669.772 151.321 669.772 151.464Z" fill="#A3C7E2"/>
<path d="M673.661 157.576C673.517 157.576 673.401 156.457 673.401 155.076C673.401 153.695 673.518 152.576 673.661 152.576C673.804 152.576 673.921 153.695 673.921 155.076C673.921 156.456 673.805 157.576 673.661 157.576Z" fill="#A3C7E2"/>
<path d="M673.661 167.576C673.517 167.576 673.401 166.457 673.401 165.076C673.401 163.695 673.518 162.576 673.661 162.576C673.804 162.576 673.921 163.695 673.921 165.076C673.921 166.456 673.805 167.576 673.661 167.576Z" fill="#A3C7E2"/>
<path d="M673.661 177.576C673.517 177.576 673.401 176.457 673.401 175.076C673.401 173.695 673.518 172.576 673.661 172.576C673.804 172.576 673.921 173.695 673.921 175.076C673.921 176.456 673.805 177.576 673.661 177.576Z" fill="#A3C7E2"/>
<path d="M673.661 187.576C673.517 187.576 673.401 186.457 673.401 185.076C673.401 183.695 673.518 182.576 673.661 182.576C673.804 182.576 673.921 183.695 673.921 185.076C673.921 186.456 673.805 187.576 673.661 187.576Z" fill="#A3C7E2"/>
<path d="M673.661 197.576C673.517 197.576 673.401 196.457 673.401 195.076C673.401 193.695 673.518 192.576 673.661 192.576C673.804 192.576 673.921 193.695 673.921 195.076C673.921 196.456 673.805 197.576 673.661 197.576Z" fill="#A3C7E2"/>
<path d="M673.661 207.576C673.517 207.576 673.401 206.457 673.401 205.076C673.401 203.695 673.518 202.576 673.661 202.576C673.804 202.576 673.921 203.695 673.921 205.076C673.921 206.456 673.805 207.576 673.661 207.576Z" fill="#A3C7E2"/>
<path d="M673.661 217.576C673.517 217.576 673.401 216.457 673.401 215.076C673.401 213.695 673.518 212.576 673.661 212.576C673.804 212.576 673.921 213.695 673.921 215.076C673.921 216.456 673.805 217.576 673.661 217.576Z" fill="#A3C7E2"/>
<path d="M673.661 227.576C673.517 227.576 673.401 226.457 673.401 225.076C673.401 223.695 673.518 222.576 673.661 222.576C673.804 222.576 673.921 223.695 673.921 225.076C673.921 226.456 673.805 227.576 673.661 227.576Z" fill="#A3C7E2"/>
<path d="M673.661 237.576C673.517 237.576 673.401 236.457 673.401 235.076C673.401 233.695 673.518 232.576 673.661 232.576C673.804 232.576 673.921 233.695 673.921 235.076C673.921 236.456 673.805 237.576 673.661 237.576Z" fill="#A3C7E2"/>
<path d="M673.661 247.576C673.517 247.576 673.401 246.457 673.401 245.076C673.401 243.695 673.518 242.576 673.661 242.576C673.804 242.576 673.921 243.695 673.921 245.076C673.921 246.456 673.805 247.576 673.661 247.576Z" fill="#A3C7E2"/>
<path d="M673.661 257.576C673.517 257.576 673.401 256.457 673.401 255.076C673.401 253.695 673.518 252.576 673.661 252.576C673.804 252.576 673.921 253.695 673.921 255.076C673.921 256.457 673.805 257.576 673.661 257.576Z" fill="#A3C7E2"/>
<path d="M417.733 113.043C417.733 113.043 409.971 108.744 402.363 127.1C394.755 145.457 392.147 155.903 392.147 155.903C392.147 155.903 390.06 159.788 387.33 157.57C384.6 155.353 380.582 148.769 376.361 150.343C371.984 151.975 370.902 157.089 372.333 164.365C373.764 171.641 376.314 187.698 376.539 189.151C376.76 190.577 376.104 192.755 374.003 191.543C371.901 190.331 359.425 178.455 354.144 184.713C348.864 190.97 356.181 210.586 356.94 212.746C357.699 214.906 357.341 215.882 356.336 216.51C355.331 217.138 351.514 212.752 347.827 209.519C344.14 206.287 339.298 203.186 336.554 207.051C333.81 210.917 334.024 226.05 350.275 249.38L358.513 259.698L371.656 257.928C399.551 252.426 410.214 241.686 410.924 236.999C411.634 232.312 405.996 231.181 401.099 230.947C396.202 230.712 390.408 231.218 390.121 230.068C389.834 228.918 390.255 227.967 392.301 226.94C394.347 225.913 413.234 216.88 413.78 208.71C414.326 200.54 397.102 200.421 394.748 199.833C392.394 199.246 393.434 197.223 394.584 196.351C395.755 195.462 408.74 185.679 414.823 181.437C420.906 177.195 423.678 172.765 421.662 168.55C419.718 164.486 412.255 166.433 408.751 166.133C405.247 165.833 406.443 161.588 406.443 161.588C406.443 161.588 411.821 152.26 419.094 133.769C426.367 115.277 417.569 112.966 417.569 112.966" fill="#A3C7E2"/>
<path d="M358.964 256.959C364.355 243.398 371.964 224.727 380.437 204.13C388.907 183.54 396.561 164.892 402.028 151.363C404.749 144.61 406.955 139.139 408.488 135.335C409.247 133.459 409.839 131.994 410.25 130.979C410.45 130.497 410.606 130.122 410.719 129.85C410.827 129.597 410.893 129.471 410.893 129.471C410.893 129.471 410.856 129.608 410.762 129.867C410.659 130.143 410.517 130.524 410.335 131.012C409.943 132.035 409.377 133.51 408.652 135.4C407.186 139.208 405.024 144.703 402.326 151.483C396.935 165.044 389.327 183.713 380.857 204.303C372.384 224.9 364.729 243.55 359.263 257.079" fill="#658CD0"/>
<path d="M381.611 159.779C381.64 159.768 381.785 160.076 382.021 160.643C382.26 161.209 382.58 162.037 382.964 163.065C383.729 165.121 384.711 167.989 385.735 171.174C386.728 174.31 387.625 177.145 388.319 179.339C388.63 180.308 388.895 181.131 389.113 181.808C389.302 182.391 389.393 182.719 389.364 182.73C389.335 182.741 389.188 182.434 388.947 181.869C388.71 181.302 388.39 180.473 388.016 179.442C387.271 177.377 386.327 174.498 385.304 171.313C384.289 168.186 383.372 165.358 382.662 163.171C382.346 162.204 382.076 161.38 381.855 160.704C381.67 160.119 381.581 159.79 381.611 159.779Z" fill="#658CD0"/>
<path d="M390.591 182.869C390.547 182.752 396.369 180.463 403.592 177.758C410.818 175.052 416.709 172.953 416.753 173.07C416.797 173.187 410.976 175.475 403.75 178.181C396.527 180.887 390.634 182.986 390.591 182.869Z" fill="#658CD0"/>
<path d="M376.155 213.907C376.154 213.876 376.498 213.831 377.122 213.778C377.843 213.722 378.725 213.654 379.763 213.573C381.993 213.398 385.071 213.147 388.457 212.748C391.846 212.357 394.9 211.898 397.109 211.551C398.138 211.391 399.012 211.255 399.727 211.144C400.346 211.052 400.692 211.016 400.698 211.046C400.704 211.077 400.37 211.172 399.76 211.317C399.15 211.462 398.264 211.654 397.164 211.866C394.965 212.295 391.908 212.805 388.509 213.198C385.112 213.598 382.02 213.8 379.781 213.892C378.661 213.934 377.755 213.957 377.128 213.954C376.503 213.953 376.156 213.938 376.155 213.907Z" fill="#658CD0"/>
<path d="M363.436 194.81C363.462 194.792 363.667 195.039 364.016 195.501C364.365 195.963 364.858 196.64 365.459 197.481C366.661 199.164 368.296 201.507 370.078 204.11C371.861 206.714 373.454 209.086 374.589 210.815C375.156 211.68 375.609 212.384 375.913 212.876C376.217 213.368 376.373 213.649 376.348 213.667C376.322 213.685 376.117 213.438 375.768 212.976C375.419 212.514 374.926 211.838 374.325 210.996C373.123 209.313 371.488 206.97 369.705 204.365C367.923 201.762 366.33 199.39 365.195 197.661C364.628 196.796 364.175 196.092 363.871 195.6C363.566 195.108 363.41 194.828 363.436 194.81Z" fill="#658CD0"/>
<path d="M347.21 220.592C347.235 220.574 347.495 220.893 347.942 221.485C348.433 222.155 349.056 223.004 349.799 224.017C351.351 226.166 353.469 229.153 355.785 232.468C358.102 235.784 360.179 238.8 361.664 240.996C362.36 242.042 362.943 242.918 363.403 243.61C363.805 244.233 364.016 244.586 363.99 244.604C363.965 244.622 363.705 244.303 363.259 243.711C362.768 243.041 362.145 242.192 361.402 241.179C359.85 239.03 357.732 236.043 355.415 232.727C353.099 229.412 351.022 226.396 349.537 224.2C348.841 223.154 348.258 222.278 347.798 221.586C347.395 220.963 347.185 220.61 347.21 220.592Z" fill="#658CD0"/>
<path d="M363.75 243.916C363.747 243.885 364.182 243.818 364.971 243.724C365.845 243.625 366.967 243.497 368.311 243.345C371.131 243.024 375.023 242.568 379.307 241.946C383.592 241.33 387.457 240.673 390.251 240.18C391.584 239.947 392.695 239.752 393.562 239.601C394.345 239.468 394.781 239.409 394.787 239.44C394.793 239.47 394.369 239.588 393.597 239.774C392.824 239.96 391.702 240.21 390.31 240.495C387.527 241.069 383.664 241.777 379.37 242.394C375.079 243.017 371.172 243.423 368.341 243.664C366.925 243.781 365.778 243.862 364.984 243.9C364.192 243.94 363.752 243.947 363.75 243.916Z" fill="#658CD0"/>
<path d="M708.797 282.047C708.797 260.414 689.247 243.348 666.851 247.551C652.764 250.195 641.538 261.7 639.07 275.819C637.528 284.644 639.349 292.946 643.375 299.798H643.356L643.456 299.93C644.803 302.201 646.491 303.824 648.197 306.21L668.598 333.234C671.137 336.597 676.187 336.597 678.726 333.234L698.787 306.656C698.787 306.656 702.531 302.191 703.89 299.895L703.963 299.799H703.949C707.01 294.585 708.797 288.532 708.797 282.047ZM673.661 297.346C665.121 297.346 658.198 290.423 658.198 281.883C658.198 273.343 665.121 266.42 673.661 266.42C682.201 266.42 689.124 273.343 689.124 281.883C689.124 290.422 682.201 297.346 673.661 297.346Z" fill="#FF4F4F"/>
<path d="M542.899 125.817V167.141C542.899 168.03 543.62 168.751 544.509 168.751H631.153C632.051 168.751 632.775 168.017 632.763 167.12L632.565 151.988C632.561 151.648 632.448 151.317 632.244 151.045L619.818 134.431C619.517 134.028 619.044 133.789 618.541 133.785L604.222 133.676C603.337 133.669 602.624 132.95 602.624 132.066V125.818C602.624 124.929 601.903 124.208 601.014 124.208H544.51C543.62 124.207 542.899 124.928 542.899 125.817Z" fill="#DCE9F1"/>
<path d="M606.653 137.281V150.541C606.653 151.057 607.076 151.473 607.593 151.464L626.719 151.122C627.452 151.109 627.878 150.288 627.467 149.681L618.526 136.488C618.349 136.227 618.052 136.075 617.737 136.083L607.552 136.358C607.051 136.372 606.653 136.781 606.653 137.281Z" fill="#A3C7E2"/>
<path d="M634.489 170.01H541.156V172.89H634.489V170.01Z" fill="#DCE9F1"/>
<path d="M569.314 177.643C572.92 174.037 572.92 168.192 569.314 164.587C565.709 160.981 559.864 160.981 556.258 164.587C552.653 168.192 552.653 174.037 556.258 177.643C559.864 181.248 565.709 181.248 569.314 177.643Z" fill="#A3C7E2"/>
<path d="M568.225 171.111C568.225 174.112 565.792 176.545 562.791 176.545C559.79 176.545 557.357 174.112 557.357 171.111C557.357 168.11 559.79 165.677 562.791 165.677C565.792 165.678 568.225 168.111 568.225 171.111Z" fill="#0D4C7B"/>
<path d="M602.551 168.752C602.318 168.752 602.13 158.779 602.13 146.481C602.13 134.178 602.319 124.208 602.551 124.208C602.784 124.208 602.972 134.178 602.972 146.481C602.973 158.779 602.784 168.752 602.551 168.752Z" fill="#A3C7E2"/>
<path d="M619.62 177.643C623.225 174.038 623.225 168.192 619.62 164.587C616.015 160.982 610.169 160.982 606.564 164.587C602.959 168.192 602.959 174.038 606.564 177.643C610.169 181.248 616.015 181.248 619.62 177.643Z" fill="#A3C7E2"/>
<path d="M618.531 171.111C618.531 174.112 616.098 176.545 613.097 176.545C610.096 176.545 607.663 174.112 607.663 171.111C607.663 168.11 610.096 165.677 613.097 165.677C616.098 165.678 618.531 168.111 618.531 171.111Z" fill="#0D4C7B"/>
<path d="M613.12 154.077C613.12 154.31 611.798 154.498 610.168 154.498C608.537 154.498 607.216 154.309 607.216 154.077C607.216 153.844 608.538 153.656 610.168 153.656C611.798 153.656 613.12 153.845 613.12 154.077Z" fill="#A3C7E2"/>
<path d="M726.135 462.192C726.135 462.336 569.406 462.452 376.116 462.452C182.759 462.452 26.064 462.335 26.064 462.192C26.064 462.048 182.759 461.932 376.116 461.932C569.406 461.931 726.135 462.048 726.135 462.192Z" fill="#0D395A"/>
<path d="M165.864 457.789C179.338 448.445 182.449 431.025 181.972 415.354C181.893 412.738 182.19 409.982 180.954 407.682C179.717 405.384 176.82 403.805 174.475 404.899C172.529 405.807 171.675 408.063 170.582 409.928C169.128 412.409 166.967 414.459 164.428 415.765C162.759 416.623 160.697 417.145 159.056 416.232C156.804 414.979 156.549 411.862 156.575 409.26C156.623 404.412 156.669 399.563 156.717 394.716C156.742 392.115 156.759 389.459 155.959 386.987C155.159 384.515 153.379 382.216 150.907 381.514C148.434 380.812 145.369 382.228 144.838 384.773C144.617 385.832 144.829 386.933 144.753 388.012C144.677 389.092 144.17 390.285 143.143 390.582C142.104 390.883 141.065 390.142 140.29 389.378C137.614 386.742 135.804 383.352 134.113 379.981C132.422 376.61 130.781 373.16 128.355 370.286C125.929 367.413 122.567 365.131 118.843 364.907C115.118 364.683 111.141 366.969 110.186 370.622C109.229 374.286 111.356 378.014 113.674 380.991C117.113 385.407 121.185 389.317 125.723 392.557C126.541 393.142 127.428 393.774 127.738 394.738C128.297 396.474 126.648 398.191 124.933 398.755C122.992 399.394 120.889 399.185 118.859 399.417C116.83 399.649 114.629 400.536 113.856 402.45C112.781 405.105 114.995 407.9 117.177 409.733C121.545 413.404 126.538 416.309 131.869 418.282C133.78 418.989 135.792 419.61 137.33 420.96C138.868 422.31 139.791 424.651 138.853 426.48C137.914 428.311 135.519 428.889 133.516 428.51C131.514 428.132 129.723 427.037 127.815 426.31C124.245 424.948 119.628 425.178 117.327 428.26C115.815 430.286 115.673 433.113 116.426 435.536C117.178 437.959 118.715 440.05 120.347 441.979C126.053 448.721 133.369 454.158 141.652 457.063C149.931 459.969 157.612 460.774 165.864 457.789Z" fill="#FFCF15"/>
<path d="M164.973 462.198C164.427 455.989 164.148 455.861 161.854 447.952C159.576 440.037 156.358 431.567 152.689 422.824C151.764 420.642 150.849 418.486 149.948 416.361C149.044 414.242 148.147 412.14 147.143 410.139C145.152 406.126 142.931 402.421 140.714 398.969C138.497 395.515 136.268 392.318 134.161 389.344C132.047 386.373 130.025 383.642 128.076 381.231C124.191 376.392 120.602 372.868 118.04 370.549C116.761 369.385 115.739 368.514 115.038 367.934C114.701 367.658 114.436 367.442 114.237 367.279C114.055 367.134 113.959 367.063 113.954 367.069C113.948 367.075 114.034 367.159 114.206 367.317C114.397 367.489 114.652 367.718 114.976 368.008C115.655 368.612 116.656 369.505 117.915 370.688C120.435 373.047 123.973 376.596 127.813 381.447C129.74 383.865 131.742 386.602 133.838 389.578C135.929 392.56 138.143 395.76 140.345 399.212C142.547 402.662 144.75 406.359 146.724 410.352C147.72 412.344 148.606 414.428 149.511 416.553C150.411 418.677 151.324 420.832 152.248 423.014C155.914 431.75 159.135 440.194 161.431 448.079C163.74 455.957 164.049 456.048 164.635 462.231" fill="#0D395A"/>
<path d="M147.006 410.12C147.038 410.125 147.128 409.73 147.264 409.011C147.403 408.293 147.57 407.247 147.757 405.952C148.134 403.363 148.532 399.77 148.957 395.808C149.381 391.843 149.83 388.266 150.245 385.691C150.449 384.403 150.624 383.361 150.755 382.643C150.881 381.924 150.937 381.522 150.904 381.514C150.872 381.507 150.756 381.894 150.573 382.603C150.386 383.31 150.159 384.345 149.912 385.631C149.409 388.201 148.906 391.786 148.481 395.755C148.072 399.666 147.703 403.205 147.421 405.909C147.286 407.13 147.171 408.158 147.079 408.984C147.002 409.71 146.973 410.115 147.006 410.12Z" fill="#0D395A"/>
<path d="M113.584 403.753C113.583 403.786 114.059 403.843 114.918 403.917C115.776 403.997 117.018 404.105 118.548 404.288C121.61 404.629 125.823 405.249 130.442 406.136C135.06 407.032 139.205 408.02 142.183 408.821C143.675 409.211 144.874 409.56 145.704 409.795C146.533 410.034 146.997 410.151 147.008 410.12C147.018 410.088 146.574 409.91 145.76 409.615C144.945 409.324 143.758 408.925 142.273 408.491C139.311 407.603 135.163 406.558 130.531 405.659C125.899 404.77 121.662 404.201 118.581 403.947C117.042 403.807 115.792 403.75 114.928 403.729C114.063 403.713 113.585 403.719 113.584 403.753Z" fill="#0D395A"/>
<path d="M161.445 447.335C161.46 447.342 161.539 447.202 161.676 446.928C161.832 446.601 162.022 446.203 162.252 445.72C162.748 444.669 163.425 443.129 164.237 441.216C165.864 437.39 167.945 432.035 170.162 426.095C172.38 420.152 174.408 414.785 175.953 410.931C176.71 409.057 177.333 407.517 177.796 406.371C177.994 405.874 178.157 405.464 178.291 405.127C178.399 404.841 178.449 404.687 178.434 404.68C178.419 404.674 178.34 404.814 178.203 405.088C178.047 405.414 177.857 405.812 177.627 406.295C177.131 407.346 176.454 408.886 175.642 410.799C174.015 414.625 171.934 419.98 169.717 425.923C167.5 431.864 165.471 437.231 163.927 441.086C163.169 442.959 162.547 444.5 162.084 445.645C161.886 446.142 161.723 446.553 161.59 446.889C161.479 447.175 161.43 447.329 161.445 447.335Z" fill="#0D395A"/>
<path d="M117.052 432.857C117.048 432.873 117.2 432.936 117.492 433.041C117.839 433.159 118.265 433.303 118.781 433.478C119.972 433.869 121.579 434.396 123.535 435.037C127.549 436.355 133.071 438.237 139.171 440.326C145.273 442.416 150.818 444.25 154.86 445.484C156.881 446.102 158.521 446.585 159.661 446.896C160.188 447.037 160.623 447.152 160.976 447.247C161.278 447.322 161.44 447.353 161.444 447.337C161.448 447.321 161.296 447.258 161.004 447.153C160.658 447.036 160.232 446.892 159.715 446.717C158.524 446.326 156.917 445.8 154.962 445.158C150.948 443.841 145.425 441.958 139.323 439.868C133.223 437.778 127.679 435.945 123.637 434.711C121.616 434.093 119.976 433.61 118.835 433.299C118.308 433.159 117.874 433.042 117.52 432.949C117.218 432.871 117.058 432.84 117.052 432.857Z" fill="#0D395A"/>
<path d="M328.246 461.692H328.244H189.074C172.535 461.616 158.546 447.503 158.616 430.963L160.098 80.4491C160.168 63.9003 173.643 50.5433 190.192 50.62L190.194 50.12L190.192 50.62L330.005 51.266C346.544 51.3427 359.892 64.809 359.822 81.3479L358.34 431.863C358.27 448.412 344.795 461.768 328.246 461.692Z" fill="#202020" stroke="#0C0C0C"/>
<path d="M329.807 64.085L302.7 63.96C299.065 63.944 296.104 67.011 296.089 70.811L296.067 75.728C296.052 79.528 293.091 82.596 289.456 82.579L236.618 82.335C232.983 82.319 230.049 79.224 230.065 75.424L230.086 70.507C230.102 66.707 227.167 63.612 223.532 63.596L213.998 63.552L190.273 63.443C178.49 63.389 168.895 72.899 168.846 84.683L167.4 426.807C167.35 438.585 176.854 448.173 188.631 448.228L328.165 448.872C339.947 448.927 349.542 439.417 349.592 427.633L351.038 85.505C351.087 73.728 341.584 64.139 329.807 64.085Z" fill="#DCE9F1"/>
<path d="M270.588 384.219C270.428 388.35 270.277 392.225 270.151 395.445H290.194L287.74 383.134L270.588 384.219Z" fill="#DCE9F1"/>
<path d="M189.13 389.372L189.305 395.446H268.151C268.285 392.035 268.432 388.25 268.583 384.347L189.13 389.372Z" fill="#DCE9F1"/>
<path d="M288.748 383.07L291.214 395.445H328.166L327.72 380.605L288.748 383.07Z" fill="#DCE9F1"/>
<path d="M272.59 210.078L279.577 169.568L261.276 168.212V210.078H272.59Z" fill="#DCE9F1"/>
<path d="M187.481 366.882L167.62 374.663L167.561 388.732L188.073 387.434L187.481 366.882Z" fill="#DCE9F1"/>
<path d="M187.391 363.718L186.305 325.988L186.29 325.989V312.682L167.874 314.633L167.634 371.435L187.383 363.699L187.391 363.718Z" fill="#DCE9F1"/>
<path d="M186.29 282.977L168.018 280.565L167.887 311.616L186.29 309.666V282.977Z" fill="#DCE9F1"/>
<path d="M322.475 313.243L321.706 324.056L300.127 326.384L301.797 334.939L326.294 333.092L325.926 320.824L327.88 312.698L322.475 313.243Z" fill="#DCE9F1"/>
<path d="M283.582 336.312L300.793 335.015L297.044 315.81L282.023 317.326L283.582 336.312Z" fill="#DCE9F1"/>
<path d="M283.746 338.305L285.061 354.32L287.395 376.283L288.353 381.091L327.66 378.605L326.354 335.094L283.746 338.305Z" fill="#DCE9F1"/>
<path d="M216.093 262.702L217.605 265.294L187.29 282.976V324.917L219.284 322.653L280.946 316.43L278.688 288.937L219.78 281.242L220.169 278.267L278.437 285.879L274.616 239.349L216.944 244.894L216.753 242.903L274.453 237.355L272.46 213.077H216.984L168.266 221.943L168.031 277.54L186.477 279.975L216.093 262.702ZM190.395 320.914C190.395 320.914 190.624 286.329 190.395 285.038L215.131 271.879L218.338 319.146L190.395 320.914Z" fill="#DCE9F1"/>
<path d="M320.455 313.447L298.043 315.709L299.742 324.414L319.83 322.247L320.455 313.447Z" fill="#DCE9F1"/>
<path d="M270.873 376.81C270.804 378.625 270.734 380.435 270.666 382.21L287.347 381.155L286.49 376.852L270.873 376.81Z" fill="#DCE9F1"/>
<path d="M234.943 210.078L237.884 196.755H260.276V168.138L190.252 162.951V189.822L168.381 194.768L168.279 218.892L216.714 210.078H234.943Z" fill="#DCE9F1"/>
<path d="M281.668 130.449L281.071 127.997L307.811 117.415L290.418 82.501C290.104 82.548 289.785 82.579 289.458 82.578L259.908 82.441L260.712 131.305L281.668 130.449Z" fill="#DCE9F1"/>
<path d="M322.192 111.724L322.161 64.049L302.7 63.96C299.065 63.944 296.104 67.011 296.089 70.811L296.067 75.728C296.058 78.073 294.924 80.137 293.205 81.371L310.609 116.308L322.192 111.724Z" fill="#DCE9F1"/>
<path d="M221.669 113.77L219.415 63.575L213.999 63.55L192.849 63.453L183.839 108.34L221.669 113.77ZM216.849 68.662L217.57 109.54L189.459 105.426L195.615 68.662H216.849Z" fill="#DCE9F1"/>
<path d="M222.691 113.916L222.696 114.344C222.744 118.261 222.825 125.311 222.883 132.851L259.711 131.346L258.906 82.436L236.618 82.333C232.983 82.317 230.049 79.222 230.065 75.422L230.086 70.505C230.102 66.705 227.167 63.61 223.532 63.594L220.415 63.579L222.676 113.914L222.691 113.916Z" fill="#DCE9F1"/>
<path d="M180.865 107.912L189.787 63.463C178.23 63.671 168.895 73.061 168.846 84.68L168.752 106.839L168.846 106.187L180.865 107.912Z" fill="#DCE9F1"/>
<path d="M187.252 162.729L168.522 161.341L168.394 191.689L187.252 187.424V162.729Z" fill="#DCE9F1"/>
<path d="M180.668 108.894L168.751 107.183L168.543 156.329L171.109 156.519L180.668 108.894Z" fill="#DCE9F1"/>
<path d="M218.5 363.145L218.815 323.688L187.303 325.917L188.416 364.572L218.5 363.145Z" fill="#DCE9F1"/>
<path d="M224.296 354.038L268.924 375.417C269.455 361.446 269.931 348.382 269.886 347.55L270.853 347.498L271.326 346.556C271.96 346.873 271.96 346.873 271.628 356.397C271.443 361.71 271.178 368.782 270.909 375.855H286.343L284.065 354.414L281.028 317.427L222.72 323.311L224.296 354.038Z" fill="#DCE9F1"/>
<path d="M333.687 288.555L333.183 283.353L279.69 288.917L281.941 316.329L328.128 311.668L333.687 288.555Z" fill="#DCE9F1"/>
<path d="M260.276 199.755H240.295L238.015 210.078H260.276V199.755Z" fill="#DCE9F1"/>
<path d="M325.426 203.239L275.381 199.777L273.341 211.6L275.448 237.259L328.228 232.184L325.426 203.239ZM277.221 211.578L279.907 204.117L323.375 206.866L325.891 228.212L278.693 233.809L277.221 211.578Z" fill="#DCE9F1"/>
<path d="M330.619 256.872L328.422 234.176L275.612 239.254L277.595 263.405L330.619 256.872Z" fill="#DCE9F1"/>
<path d="M188.13 389.435L167.642 390.731L167.558 389.397L167.533 395.445H188.303L188.13 389.435Z" fill="#DCE9F1"/>
<path d="M350.67 100.454L350.972 101.216L351.038 85.504C351.087 73.727 341.584 64.139 329.807 64.085L323.16 64.054L323.191 111.328L350.67 100.454Z" fill="#DCE9F1"/>
<path d="M268.883 376.506L223.329 354.683L221.724 323.411L219.816 323.604L219.493 364.098L188.445 365.571L188.471 366.474L188.478 366.492L188.471 366.495L189.072 387.372L268.659 382.338C268.734 380.401 268.809 378.449 268.883 376.506ZM190.395 368.145L233.852 365.095L262.125 378.213L190.395 382.095V368.145Z" fill="#DCE9F1"/>
<path d="M337.723 152.959L339.586 141.905C323.25 136.076 322.12 119.041 322.168 113.884L311.504 118.104L327.559 150.333L337.723 152.959Z" fill="#DCE9F1"/>
<path d="M279.445 285.927L301.655 283.617L297.277 264.002L277.841 266.397L279.445 285.927Z" fill="#DCE9F1"/>
<path d="M325.505 169.904L284.022 169.897L280.579 169.642L275.894 196.805L325.133 200.212L323.989 188.401L328.836 170.955L325.505 169.904Z" fill="#DCE9F1"/>
<path d="M324.489 164.904L325.008 151.939L308.705 119.213L283.426 129.217L292.117 164.905L324.489 164.904ZM307.721 123.193L322.66 151.614L320.502 160.471L294.94 159.509L288.549 132.626L307.721 123.193Z" fill="#DCE9F1"/>
<path d="M330.943 321.343L331.708 346.809L349.68 345.798L349.737 346.796L331.738 347.809L332.653 378.289L349.646 377.214L349.772 379.21L332.713 380.289L333.168 395.445H349.728L350.087 310.457L333.151 312.166L330.943 321.343Z" fill="#DCE9F1"/>
<path d="M221.701 114.785L183.642 109.322L174.123 156.743L221.868 160.28C222.06 152.978 221.893 130.584 221.701 114.785Z" fill="#DCE9F1"/>
<path d="M284.299 164.904H290.058L281.909 131.44L260.728 132.306L261.236 163.195L284.299 164.904Z" fill="#DCE9F1"/>
<path d="M167.43 419.789L167.4 426.806C167.399 427.023 167.424 427.233 167.43 427.448V419.789Z" fill="#DCE9F1"/>
<path d="M222.844 160.351L260.235 163.121L259.728 132.346L222.891 133.851C222.969 144.259 223 155.36 222.844 160.351Z" fill="#DCE9F1"/>
<path d="M330.908 259.858L298.275 263.879L302.656 283.513L332.894 280.367L330.908 259.858Z" fill="#DCE9F1"/>
<path d="M339.755 140.903L341.846 128.498L350.854 129.199L350.967 102.487L323.181 113.483C322.615 132.281 334.421 138.89 339.755 140.903Z" fill="#DCE9F1"/>
<path d="M329.056 188.845L330.19 200.561L350.546 201.97L350.648 177.843L333.607 172.462L329.056 188.845Z" fill="#DCE9F1"/>
<path d="M338.744 288.909L333.398 311.137L350.091 309.452L350.19 286.143C345.067 284.794 340.597 283.695 338.195 283.232L338.744 288.909Z" fill="#DCE9F1"/>
<path d="M327.477 165.283L350.67 172.607L350.726 159.417L327.947 153.532L327.477 165.283Z" fill="#DCE9F1"/>
<path d="M337.899 280.179C339.768 280.461 343.311 281.214 350.203 283.025L350.419 232.06L333.399 233.697L337.899 280.179Z" fill="#DCE9F1"/>
<path d="M333.206 231.706L350.427 230.05L350.533 204.976L330.483 203.589L333.206 231.706Z" fill="#DCE9F1"/>
<path d="M341.677 141.535C344.941 142.528 347.978 143.295 350.792 143.859L350.845 131.205L343.514 130.634L341.677 141.535Z" fill="#DCE9F1"/>
<path d="M339.667 153.462L350.739 156.323L350.787 144.887C347.923 144.313 344.832 143.534 341.509 142.528L339.667 153.462Z" fill="#DCE9F1"/>
<path d="M188.13 389.435L188.303 395.445H189.304L189.129 389.371L268.581 384.345C268.43 388.249 268.283 392.033 268.149 395.444H270.15C270.276 392.223 270.427 388.349 270.587 384.218L287.74 383.133L290.194 395.444H291.213L288.747 383.069L327.72 380.604L328.165 395.444H333.168L332.713 380.288L349.772 379.209L349.646 377.213L332.654 378.288L331.739 347.808L349.738 346.795L349.681 345.797L331.709 346.808L330.944 321.342L333.151 312.165L350.088 310.456L350.092 309.451L333.399 311.136L338.745 288.908L338.195 283.231C340.597 283.694 345.067 284.793 350.19 286.142L350.203 283.025C343.311 281.213 339.768 280.461 337.899 280.179L333.399 233.697L350.419 232.06L350.427 230.05L333.206 231.706L330.484 203.589L350.534 204.976L350.547 201.969L330.191 200.561L329.056 188.844L333.607 172.461L350.648 177.842L350.67 172.606L327.477 165.282L327.947 153.531L350.725 159.417L350.738 156.323L339.666 153.462L341.508 142.528C344.831 143.535 347.922 144.314 350.786 144.887L350.79 143.859C347.977 143.295 344.94 142.527 341.675 141.535L343.512 130.634L350.843 131.205L350.851 129.2L341.843 128.499L339.752 140.904C334.418 138.891 322.611 132.281 323.177 113.484L350.963 102.488L350.968 101.217L350.666 100.455L323.187 111.329L323.156 64.055L322.156 64.05L322.187 111.725L310.605 116.308L293.206 81.37C292.39 81.956 291.441 82.349 290.417 82.501L307.81 117.415L281.07 127.997L281.667 130.449L260.71 131.305L259.906 82.441L258.906 82.436L259.711 131.346L222.883 132.851C222.824 125.311 222.744 118.261 222.696 114.344L222.691 113.916L222.677 113.914L220.416 63.579L219.415 63.574L221.669 113.769L183.839 108.338L192.849 63.451L190.273 63.439C190.109 63.438 189.95 63.458 189.787 63.461L180.865 107.91L168.846 106.185L168.752 106.837L168.751 107.182L180.668 108.893L171.109 156.518L168.543 156.328L168.522 161.34L187.252 162.727V187.423L168.394 191.688L168.381 194.767L190.252 189.82V162.949L260.276 168.136V196.753H237.884L234.942 210.076H216.713L168.278 218.89L168.265 221.941L216.983 213.075H272.459L274.452 237.353L216.752 242.901L216.943 244.892L274.615 239.347L278.436 285.877L220.168 278.265L219.779 281.24L278.687 288.935L280.945 316.428L219.283 322.651L187.289 324.915V282.974L217.604 265.292L216.092 262.7L186.476 279.973L168.03 277.538L168.017 280.563L186.289 282.975V309.664L167.886 311.613L167.873 314.63L186.289 312.679V325.985L186.304 325.984L187.39 363.714L187.382 363.695L167.633 371.432L167.619 374.659L187.48 366.878L188.072 387.431L167.56 388.729L167.557 389.394L167.641 390.728L188.13 389.435ZM270.666 382.21C270.734 380.435 270.804 378.625 270.873 376.81L286.489 376.853L287.346 381.156L270.666 382.21ZM288.353 381.091L287.395 376.283L285.061 354.32L283.746 338.305L326.354 335.094L327.66 378.605L288.353 381.091ZM298.043 315.709L320.455 313.447L319.829 322.247L299.742 324.413L298.043 315.709ZM297.044 315.81L300.792 335.015L283.581 336.312L282.022 317.326L297.044 315.81ZM326.294 333.092L301.797 334.938L300.127 326.383L321.706 324.055L322.475 313.242L327.88 312.696L325.926 320.822L326.294 333.092ZM297.277 264.002L301.654 283.617L279.444 285.928L277.84 266.397L297.277 264.002ZM302.656 283.513L298.275 263.879L330.909 259.858L332.895 280.367L302.656 283.513ZM325.133 200.212L275.894 196.805L280.58 169.642L284.023 169.897L325.506 169.904L328.836 170.956L323.989 188.402L325.133 200.212ZM322.169 113.884C322.121 119.041 323.251 136.076 339.587 141.905L337.724 152.959L327.561 150.332L311.506 118.103L322.169 113.884ZM308.705 119.212L325.008 151.938L324.489 164.903H292.116L283.425 129.215L308.705 119.212ZM281.909 131.44L290.058 164.903H284.3L261.236 163.195L260.728 132.305L281.909 131.44ZM259.728 132.346L260.235 163.121L222.844 160.351C223 155.359 222.969 144.259 222.891 133.851L259.728 132.346ZM183.643 109.321L221.702 114.784C221.894 130.583 222.061 152.978 221.87 160.279L174.125 156.742L183.643 109.321ZM279.577 169.568L272.589 210.078H261.276V168.212L279.577 169.568ZM240.295 199.755H260.277V210.078H238.016L240.295 199.755ZM273.341 211.6L275.381 199.777L325.426 203.239L328.229 232.184L275.449 237.259L273.341 211.6ZM328.422 234.176L330.619 256.872L277.595 263.406L275.612 239.254L328.422 234.176ZM279.69 288.917L333.183 283.353L333.687 288.555L328.128 311.668L281.941 316.329L279.69 288.917ZM284.065 354.413L286.343 375.854H270.909C271.178 368.781 271.442 361.709 271.628 356.396C271.961 346.873 271.961 346.873 271.326 346.555L270.853 347.497L269.886 347.549C269.931 348.381 269.455 361.445 268.924 375.416L224.296 354.037L222.719 323.309L281.027 317.425L284.065 354.413ZM218.815 323.688L218.5 363.145L188.416 364.572L187.304 325.917L218.815 323.688ZM188.471 366.494L188.478 366.491L188.471 366.473L188.445 365.57L219.493 364.097L219.816 323.603L221.724 323.41L223.329 354.682L268.883 376.505C268.809 378.447 268.734 380.4 268.66 382.336L189.073 387.37L188.471 366.494Z" fill="#444444"/>
<path d="M233.852 365.095L190.395 368.145V382.095L262.125 378.213L233.852 365.095Z" fill="#A3C7E2"/>
<path d="M323.375 206.866L279.908 204.117L277.221 211.578L278.693 233.809L325.891 228.212L323.375 206.866Z" fill="#A3C7E2"/>
<path d="M188.631 448.227L328.165 448.871C339.947 448.926 349.542 439.416 349.592 427.632L349.728 395.445H333.168H328.165H291.213H290.194H270.151H268.15H189.304H188.303H167.532L167.429 419.789V427.448C167.723 438.928 177.07 448.174 188.631 448.227Z" fill="#A3C7E2"/>
<path d="M217.57 109.54L216.849 68.662H195.615L189.458 105.426L217.57 109.54Z" fill="#A3C7E2"/>
<path d="M320.502 160.471L322.66 151.614L307.721 123.193L288.549 132.626L294.94 159.509L320.502 160.471Z" fill="#A3C7E2"/>
<path d="M190.395 285.038C190.624 286.329 190.395 320.914 190.395 320.914L218.337 319.147L215.13 271.88L190.395 285.038Z" fill="#A3C7E2"/>
<path d="M283.589 313.124L282.111 291.69L330.035 285.531V289.226L324.24 308.936L283.589 313.124Z" fill="#A3C7E2"/>
<path d="M248.139 135.39C248.139 138.613 245.526 141.227 242.302 141.227C239.078 141.227 236.465 138.614 236.465 135.39C236.465 132.166 239.078 129.553 242.302 129.553C245.526 129.553 248.139 132.167 248.139 135.39Z" fill="#FFCF15"/>
<g opacity="0.6">
<path d="M248.133 135.14C248.271 138.361 245.772 141.083 242.552 141.221C239.331 141.359 236.609 138.86 236.471 135.64C236.333 132.419 238.832 129.697 242.052 129.559C245.273 129.421 247.995 131.919 248.133 135.14Z" fill="#444444"/>
</g>
<path d="M242.302 139.071C244.446 139.071 246.184 137.333 246.184 135.189C246.184 133.045 244.446 131.307 242.302 131.307C240.158 131.307 238.42 133.045 238.42 135.189C238.42 137.333 240.158 139.071 242.302 139.071Z" fill="#FFCF15"/>
<path d="M332.529 368.537C332.529 369.915 331.412 371.031 330.035 371.031C328.658 371.031 327.541 369.914 327.541 368.537C327.541 367.159 328.658 366.043 330.035 366.043C331.412 366.043 332.529 367.159 332.529 368.537Z" fill="#FFCF15"/>
<path d="M328.536 367.726L327.934 353.749L285.805 355.797C284.707 355.853 283.606 355.617 282.622 355.121L222.869 324.941C221.486 324.242 220.577 322.847 220.498 321.3L212.364 163.564C212.325 162.808 212.613 162.071 213.154 161.542C213.695 161.013 214.444 160.747 215.194 160.796L240.802 162.694V134.699H243.802V163.082C243.802 163.813 243.495 164.518 242.959 165.016C242.423 165.514 241.697 165.765 240.968 165.715L215.381 163.819L223.494 321.147C223.518 321.622 223.797 322.049 224.222 322.264L283.974 352.443C284.494 352.706 285.069 352.833 285.659 352.801L328.137 350.736C328.853 350.708 329.527 350.946 330.053 351.424C330.579 351.904 330.885 352.559 330.916 353.27L331.533 367.598L328.536 367.726Z" fill="#FFCF15"/>
<path d="M217.256 239.612C221.431 239.612 224.816 236.227 224.816 232.052C224.816 227.877 221.431 224.492 217.256 224.492C213.081 224.492 209.696 227.877 209.696 232.052C209.696 236.227 213.081 239.612 217.256 239.612Z" fill="#FFCF15"/>
<path d="M217.256 237.304C220.157 237.304 222.508 234.953 222.508 232.052C222.508 229.151 220.157 226.8 217.256 226.8C214.355 226.8 212.004 229.151 212.004 232.052C212.004 234.953 214.355 237.304 217.256 237.304Z" fill="#0D4C7B"/>
<path d="M217.257 237.679C214.154 237.679 211.629 235.155 211.629 232.052C211.629 228.949 214.154 226.425 217.257 226.425C220.359 226.425 222.884 228.949 222.884 232.052C222.883 235.155 220.359 237.679 217.257 237.679ZM217.257 227.175C214.568 227.175 212.379 229.363 212.379 232.052C212.379 234.741 214.567 236.929 217.257 236.929C219.946 236.929 222.134 234.741 222.134 232.052C222.133 229.363 219.945 227.175 217.257 227.175Z" fill="#FFCF15"/>
<path d="M261.794 200.337H225.792C224.042 200.337 222.623 201.756 222.623 203.506V216.544C222.623 218.294 224.042 219.713 225.792 219.713H226.212V222.82L229.816 219.713H261.794C263.544 219.713 264.962 218.294 264.962 216.544V203.506C264.962 201.756 263.544 200.337 261.794 200.337Z" fill="#244F6F"/>
<path d="M249.901 115.778C249.901 111.17 245.737 107.535 240.966 108.43C237.965 108.993 235.574 111.444 235.048 114.451C234.719 116.331 235.107 118.099 235.965 119.559H235.961L235.982 119.587C236.269 120.071 236.629 120.416 236.992 120.925L241.338 126.681C241.879 127.397 242.955 127.397 243.495 126.681L247.768 121.02C247.768 121.02 248.566 120.069 248.855 119.58L248.871 119.56H248.868C249.521 118.449 249.901 117.16 249.901 115.778ZM242.417 119.037C240.598 119.037 239.123 117.562 239.123 115.743C239.123 113.924 240.598 112.449 242.417 112.449C244.236 112.449 245.711 113.924 245.711 115.743C245.711 117.562 244.236 119.037 242.417 119.037Z" fill="#FFCF15"/>
<path d="M201.443 410.649H200.048V410.143H203.414V410.649H202.019V414.212H201.443V410.649Z" fill="#0D395A"/>
<path d="M203.361 412.671C203.361 411.753 204.041 411.102 204.966 411.102C205.89 411.102 206.565 411.753 206.565 412.671C206.565 413.59 205.891 414.247 204.966 414.247C204.042 414.247 203.361 413.59 203.361 412.671ZM206.001 412.671C206.001 412.015 205.56 411.59 204.966 411.59C204.373 411.59 203.925 412.015 203.925 412.671C203.925 413.328 204.373 413.759 204.966 413.759C205.559 413.759 206.001 413.328 206.001 412.671Z" fill="#0D395A"/>
<path d="M209.071 414.032C208.902 414.178 208.646 414.248 208.396 414.248C207.774 414.248 207.419 413.904 207.419 413.282V411.591H206.896V411.132H207.419V410.457H207.977V411.132H208.861V411.591H207.977V413.26C207.977 413.591 208.151 413.778 208.459 413.778C208.622 413.778 208.779 413.725 208.895 413.632L209.071 414.032Z" fill="#0D395A"/>
<path d="M212.187 412.352V414.212H211.658V413.805C211.472 414.084 211.129 414.247 210.646 414.247C209.948 414.247 209.506 413.875 209.506 413.34C209.506 412.846 209.826 412.439 210.744 412.439H211.628V412.329C211.628 411.858 211.355 411.585 210.802 411.585C210.436 411.585 210.064 411.713 209.825 411.917L209.593 411.498C209.913 411.242 210.372 411.102 210.866 411.102C211.71 411.102 212.187 411.509 212.187 412.352ZM211.629 413.271V412.84H210.769C210.217 412.84 210.059 413.055 210.059 413.317C210.059 413.626 210.315 413.817 210.739 413.817C211.158 413.817 211.489 413.625 211.629 413.271Z" fill="#0D395A"/>
<path d="M213.221 409.899H213.779V414.212H213.221V409.899Z" fill="#0D395A"/>
<path d="M219.314 409.899V414.212H218.779V413.724C218.529 414.073 218.134 414.247 217.68 414.247C216.779 414.247 216.122 413.613 216.122 412.671C216.122 411.73 216.779 411.102 217.68 411.102C218.116 411.102 218.5 411.265 218.756 411.596V409.899H219.314ZM218.761 412.671C218.761 412.015 218.314 411.59 217.726 411.59C217.133 411.59 216.686 412.015 216.686 412.671C216.686 413.328 217.134 413.759 217.726 413.759C218.314 413.759 218.761 413.328 218.761 412.671Z" fill="#0D395A"/>
<path d="M220.273 410.178C220.273 409.974 220.436 409.811 220.651 409.811C220.866 409.811 221.029 409.968 221.029 410.166C221.029 410.375 220.872 410.538 220.651 410.538C220.436 410.538 220.273 410.381 220.273 410.178ZM220.372 411.131H220.93V414.212H220.372V411.131Z" fill="#0D395A"/>
<path d="M221.605 413.887L221.837 413.445C222.099 413.632 222.517 413.765 222.918 413.765C223.435 413.765 223.65 413.608 223.65 413.346C223.65 412.655 221.702 413.253 221.702 412.027C221.702 411.474 222.196 411.102 222.987 411.102C223.388 411.102 223.842 411.206 224.109 411.381L223.871 411.822C223.592 411.642 223.284 411.578 222.982 411.578C222.493 411.578 222.255 411.759 222.255 412.003C222.255 412.73 224.209 412.137 224.209 413.334C224.209 413.893 223.697 414.247 222.878 414.247C222.366 414.247 221.86 414.09 221.605 413.887Z" fill="#0D395A"/>
<path d="M226.639 414.032C226.47 414.178 226.214 414.248 225.964 414.248C225.342 414.248 224.987 413.904 224.987 413.282V411.591H224.464V411.132H224.987V410.457H225.545V411.132H226.429V411.591H225.545V413.26C225.545 413.591 225.719 413.778 226.027 413.778C226.19 413.778 226.347 413.725 226.463 413.632L226.639 414.032Z" fill="#0D395A"/>
<path d="M229.755 412.352V414.212H229.226V413.805C229.04 414.084 228.697 414.247 228.214 414.247C227.516 414.247 227.074 413.875 227.074 413.34C227.074 412.846 227.394 412.439 228.312 412.439H229.196V412.329C229.196 411.858 228.923 411.585 228.37 411.585C228.004 411.585 227.632 411.713 227.393 411.917L227.161 411.498C227.481 411.242 227.94 411.102 228.434 411.102C229.279 411.102 229.755 411.509 229.755 412.352ZM229.197 413.271V412.84H228.337C227.785 412.84 227.627 413.055 227.627 413.317C227.627 413.626 227.883 413.817 228.307 413.817C228.726 413.817 229.057 413.625 229.197 413.271Z" fill="#0D395A"/>
<path d="M233.714 412.439V414.212H233.156V412.503C233.156 411.899 232.854 411.602 232.325 411.602C231.732 411.602 231.348 411.956 231.348 412.625V414.212H230.79V411.131H231.325V411.596C231.552 411.282 231.947 411.102 232.435 411.102C233.185 411.102 233.714 411.533 233.714 412.439Z" fill="#0D395A"/>
<path d="M234.482 412.671C234.482 411.753 235.162 411.102 236.11 411.102C236.662 411.102 237.121 411.329 237.366 411.759L236.941 412.032C236.744 411.729 236.441 411.59 236.104 411.59C235.499 411.59 235.046 412.015 235.046 412.671C235.046 413.34 235.5 413.759 236.104 413.759C236.441 413.759 236.744 413.619 236.941 413.317L237.366 413.585C237.121 414.016 236.662 414.248 236.11 414.248C235.162 414.247 234.482 413.59 234.482 412.671Z" fill="#0D395A"/>
<path d="M240.813 412.858H238.313C238.383 413.399 238.819 413.759 239.429 413.759C239.789 413.759 240.092 413.637 240.319 413.387L240.627 413.747C240.348 414.072 239.923 414.247 239.412 414.247C238.418 414.247 237.755 413.59 237.755 412.671C237.755 411.759 238.412 411.102 239.301 411.102C240.191 411.102 240.824 411.742 240.824 412.689C240.824 412.736 240.818 412.805 240.813 412.858ZM238.313 412.456H240.29C240.232 411.938 239.842 411.572 239.302 411.572C238.766 411.573 238.371 411.933 238.313 412.456Z" fill="#0D395A"/>
<path d="M205.096 418.776V428.485H202.849V420.579H200.907V418.776H205.096Z" fill="#0D395A"/>
<path d="M209.41 427.237C209.41 427.597 209.354 427.861 209.036 428.624L208.246 430.621H206.872L207.482 428.416C207.024 428.235 206.733 427.806 206.733 427.237C206.733 426.432 207.316 425.905 208.079 425.905C208.855 425.905 209.41 426.446 209.41 427.237Z" fill="#0D395A"/>
<path d="M213.945 418.776V428.485H211.698V420.579H209.756V418.776H213.945Z" fill="#0D395A"/>
<path d="M215.637 423.63C215.637 420.426 217.412 418.609 219.798 418.609C222.197 418.609 223.959 420.426 223.959 423.63C223.959 426.834 222.197 428.651 219.798 428.651C217.413 428.651 215.637 426.834 215.637 423.63ZM221.698 423.63C221.698 421.425 220.922 420.509 219.798 420.509C218.688 420.509 217.911 421.425 217.911 423.63C217.911 425.835 218.688 426.751 219.798 426.751C220.922 426.751 221.698 425.835 221.698 423.63Z" fill="#0D395A"/>
<path d="M225.055 423.63C225.055 420.426 226.83 418.609 229.216 418.609C231.615 418.609 233.377 420.426 233.377 423.63C233.377 426.834 231.615 428.651 229.216 428.651C226.83 428.651 225.055 426.834 225.055 423.63ZM231.116 423.63C231.116 421.425 230.34 420.509 229.216 420.509C228.106 420.509 227.329 421.425 227.329 423.63C227.329 425.835 228.106 426.751 229.216 426.751C230.339 426.751 231.116 425.835 231.116 423.63Z" fill="#0D395A"/>
<path d="M251.464 424.212V428.485H249.3V424.545C249.3 423.339 248.759 422.784 247.885 422.784C246.914 422.784 246.234 423.408 246.234 424.739V428.484H244.07V424.544C244.07 423.338 243.557 422.783 242.656 422.783C241.699 422.783 241.019 423.407 241.019 424.738V428.483H238.855V421.021H240.922V421.88C241.477 421.242 242.309 420.909 243.266 420.909C244.306 420.909 245.194 421.311 245.721 422.13C246.318 421.367 247.288 420.909 248.412 420.909C250.187 420.911 251.464 421.938 251.464 424.212Z" fill="#0D395A"/>
<path d="M194.934 419.931C195.993 415.429 193.201 410.921 188.699 409.862C184.196 408.803 179.688 411.595 178.629 416.097C177.571 420.6 180.362 425.108 184.865 426.167C189.367 427.225 193.875 424.434 194.934 419.931Z" fill="#FFCF15"/>
<path d="M183.424 419.543C183.424 419.495 184.206 419.449 185.574 419.41C186.942 419.371 188.896 419.339 191.238 419.316L191.066 419.689C190.405 418.925 189.685 418.093 188.93 417.221L188.795 417.065L188.925 416.902C189.596 416.064 190.304 415.179 191.035 414.267L191.237 414.69C190.935 414.69 190.611 414.69 190.285 414.691C187.816 414.681 185.484 414.672 183.422 414.664L183.655 414.431C183.634 416.971 183.601 419.108 183.561 420.609C183.521 422.11 183.473 422.976 183.422 422.976C183.371 422.976 183.324 422.11 183.283 420.609C183.243 419.108 183.21 416.972 183.189 414.431L183.187 414.199L183.422 414.198C185.484 414.19 187.816 414.181 190.285 414.171C190.611 414.171 190.935 414.171 191.237 414.172H191.782L191.439 414.595C190.703 415.503 189.989 416.384 189.313 417.218L189.308 416.899C190.05 417.782 190.758 418.624 191.408 419.397L191.725 419.775L191.235 419.77C188.893 419.748 186.939 419.715 185.571 419.676C184.206 419.637 183.424 419.591 183.424 419.543Z" fill="#0D4C7B"/>
<path d="M322.224 403.733H296.915C294.241 403.733 292.073 405.901 292.073 408.575V428.5C292.073 431.174 294.241 433.342 296.915 433.342H297.557V438.091L303.065 433.342H322.224C324.898 433.342 327.066 431.174 327.066 428.5V408.575C327.066 405.901 324.899 403.733 322.224 403.733Z" fill="#FFCF15"/>
<path d="M299.329 412.871V423.087C299.329 423.307 299.507 423.485 299.727 423.485H321.146C321.368 423.485 321.547 423.304 321.544 423.082L321.495 419.341C321.494 419.257 321.466 419.175 321.416 419.108L318.344 415.001C318.269 414.901 318.153 414.842 318.028 414.841L314.488 414.814C314.269 414.812 314.093 414.635 314.093 414.416V412.871C314.093 412.651 313.915 412.473 313.695 412.473H299.727C299.507 412.474 299.329 412.652 299.329 412.871Z" fill="#0D4C7B"/>
<path d="M315.089 415.705V418.983C315.089 419.111 315.194 419.213 315.321 419.211L320.049 419.126C320.23 419.123 320.335 418.92 320.234 418.77L318.024 415.509C317.98 415.445 317.907 415.407 317.829 415.409L315.311 415.477C315.188 415.481 315.089 415.582 315.089 415.705Z" fill="#FFCF15"/>
<path d="M321.97 423.796H298.898V424.508H321.97V423.796Z" fill="#0D4C7B"/>
<path d="M306.528 424.069C306.528 425.329 305.506 426.351 304.246 426.351C302.986 426.351 301.964 425.329 301.964 424.069C301.964 422.809 302.986 421.787 304.246 421.787C305.507 421.786 306.528 422.808 306.528 424.069Z" fill="#FFCF15"/>
<path d="M305.59 424.069C305.59 424.811 304.989 425.412 304.247 425.412C303.505 425.412 302.904 424.811 302.904 424.069C302.904 423.327 303.505 422.726 304.247 422.726C304.988 422.725 305.59 423.327 305.59 424.069Z" fill="#0D4C7B"/>
<path d="M314.075 423.485C314.017 423.485 313.971 421.02 313.971 417.979C313.971 414.938 314.018 412.473 314.075 412.473C314.132 412.473 314.179 414.938 314.179 417.979C314.179 421.02 314.133 423.485 314.075 423.485Z" fill="#FFCF15"/>
<path d="M318.964 424.069C318.964 425.329 317.942 426.351 316.682 426.351C315.422 426.351 314.4 425.329 314.4 424.069C314.4 422.809 315.422 421.787 316.682 421.787C317.942 421.787 318.964 422.808 318.964 424.069Z" fill="#FFCF15"/>
<path d="M318.025 424.069C318.025 424.811 317.424 425.412 316.682 425.412C315.94 425.412 315.339 424.811 315.339 424.069C315.339 423.327 315.94 422.726 316.682 422.726C317.424 422.725 318.025 423.327 318.025 424.069Z" fill="#0D4C7B"/>
<path d="M316.688 419.858C316.688 419.916 316.361 419.962 315.958 419.962C315.555 419.962 315.228 419.915 315.228 419.858C315.228 419.801 315.555 419.754 315.958 419.754C316.361 419.754 316.688 419.8 316.688 419.858Z" fill="#FFCF15"/>
<path d="M555.335 252.129C555.335 252.129 571.47 254.855 572.769 255.201C574.068 255.547 579.177 257.972 579.437 259.531C579.697 261.09 579.437 265.679 579.437 265.679C579.437 265.679 578.515 266.432 577.937 264.93C577.359 263.428 577.446 260.457 577.446 260.457L574.588 259.357L576.147 262.128L576.407 268.623C576.407 268.623 574.411 268.441 574.023 266.886C573.636 265.332 573.642 263.6 573.642 263.6L571.557 261.834L573.116 263.946L573.642 268.622C573.642 268.622 572.121 269.113 571.642 268.076C571.164 267.038 571.124 263.946 571.124 263.946L565.245 261.892L561.35 264.06L554.077 259.947L555.335 252.129Z" fill="#FFBE9D"/>
<path d="M498.864 212.257C498.937 212.577 518.303 239.234 518.303 239.234L557.203 251.332L555.431 265.943L507.756 256.343L490.836 236.925L498.864 212.257Z" fill="#FFCF15"/>
<g opacity="0.2">
<path d="M498.864 212.257C498.937 212.577 518.303 239.234 518.303 239.234L557.203 251.332L555.431 265.943L507.756 256.343L490.836 236.925L498.864 212.257Z" fill="black"/>
</g>
<path d="M431.106 264.44H351.623C349.94 264.44 348.575 263.075 348.575 261.392V251.997C348.575 250.314 349.94 248.949 351.623 248.949H431.106C432.79 248.949 434.154 250.314 434.154 251.997V261.392C434.154 263.075 432.79 264.44 431.106 264.44Z" fill="#DCE9F1"/>
<path d="M431.106 264.44C431.105 264.422 431.28 264.433 431.607 264.368C431.929 264.301 432.425 264.168 432.932 263.762C433.433 263.37 433.948 262.68 434.054 261.741C434.091 260.802 434.05 259.681 434.053 258.44C434.046 257.192 434.039 255.808 434.03 254.294C434.025 253.537 434.021 252.747 434.016 251.927C434 251.141 433.635 250.336 432.99 249.79C432.671 249.514 432.281 249.312 431.861 249.202C431.443 249.082 430.995 249.104 430.515 249.104C429.57 249.107 428.595 249.11 427.592 249.114C425.585 249.12 423.464 249.126 421.238 249.132C403.403 249.152 378.801 249.178 351.628 249.208C350.847 249.202 350.082 249.547 349.564 250.122C349.034 250.702 348.788 251.458 348.835 252.272C348.835 253.95 348.834 255.618 348.834 257.273C348.834 258.1 348.833 258.925 348.833 259.746V260.976C348.829 261.399 348.83 261.76 348.933 262.123C349.125 262.844 349.622 263.474 350.27 263.832C350.593 264.012 350.952 264.126 351.318 264.166C351.67 264.197 352.103 264.178 352.494 264.184C358.903 264.189 365.086 264.194 370.976 264.199C382.751 264.22 393.356 264.239 402.271 264.255C411.162 264.29 418.365 264.318 423.369 264.338C425.842 264.359 427.771 264.376 429.105 264.387C429.744 264.398 430.239 264.407 430.597 264.413C430.934 264.422 431.106 264.44 431.106 264.44C431.106 264.44 430.934 264.458 430.598 264.467C430.241 264.473 429.745 264.482 429.106 264.493C427.772 264.504 425.843 264.521 423.37 264.542C418.366 264.562 411.163 264.59 402.272 264.625C393.357 264.641 382.752 264.66 370.977 264.681C365.087 264.686 358.904 264.691 352.495 264.696C352.086 264.689 351.714 264.713 351.264 264.676C350.83 264.63 350.405 264.495 350.022 264.282C349.254 263.859 348.666 263.115 348.437 262.26C348.314 261.836 348.313 261.371 348.318 260.978L348.317 259.748C348.317 258.927 348.317 258.102 348.316 257.275C348.316 255.62 348.315 253.953 348.315 252.274C348.257 251.413 348.551 250.438 349.179 249.774C349.792 249.093 350.704 248.683 351.628 248.69C378.801 248.72 403.403 248.747 421.238 248.766C423.464 248.773 425.585 248.779 427.592 248.784C428.595 248.787 429.569 248.791 430.515 248.794C430.977 248.797 431.472 248.776 431.939 248.912C432.402 249.038 432.83 249.264 433.178 249.57C433.883 250.176 434.276 251.064 434.285 251.922C434.282 252.745 434.28 253.537 434.278 254.296C434.27 255.81 434.262 257.194 434.255 258.442C434.237 259.691 434.263 260.786 434.208 261.761C434.079 262.747 433.524 263.455 432.996 263.847C432.46 264.253 431.946 264.372 431.616 264.422C431.28 264.469 431.106 264.44 431.106 264.44Z" fill="#0D395A"/>
<path d="M646.899 462.334C669.454 461.25 686.86 442.087 685.776 419.533C684.692 396.978 665.529 379.572 642.974 380.656C620.418 381.74 603.012 400.903 604.096 423.458C605.18 446.013 624.344 463.418 646.899 462.334Z" fill="#0D395A"/>
<path d="M604.077 420.842C604.076 420.877 604.07 420.912 604.07 420.947C603.744 443.526 621.785 462.095 644.364 462.421C666.944 462.747 685.513 444.706 685.838 422.127C685.839 422.091 685.834 422.057 685.834 422.021L604.077 420.842Z" fill="#0D395A"/>
<path d="M616.251 421.123C616.022 436.976 628.688 450.012 644.54 450.241C660.393 450.47 673.429 437.804 673.658 421.951C673.887 406.099 661.221 393.062 645.368 392.833C629.516 392.605 616.48 405.27 616.251 421.123Z" fill="#0D4C7B"/>
<path d="M645.368 392.833C629.516 392.604 616.48 405.27 616.251 421.123L673.658 421.951C673.886 406.099 661.221 393.062 645.368 392.833Z" fill="#658CD0"/>
<path d="M627.47 421.285C627.331 430.942 635.046 438.883 644.702 439.022C654.359 439.161 662.3 431.446 662.44 421.79C662.579 412.133 654.863 404.192 645.207 404.053C635.55 403.913 627.609 411.628 627.47 421.285Z" fill="#0D395A"/>
<path d="M625.546 361.584C625.546 361.584 667.41 348.921 684.724 394.403L597.12 421.537L625.546 361.584Z" fill="#FFCF15"/>
<path d="M394.624 462.343C417.18 461.259 434.586 442.096 433.502 419.541C432.418 396.986 413.254 379.581 390.699 380.665C368.144 381.749 350.738 400.912 351.822 423.466C352.906 446.021 372.069 463.426 394.624 462.343Z" fill="#0D395A"/>
<path d="M351.79 420.842C351.789 420.877 351.783 420.912 351.783 420.947C351.457 443.526 369.498 462.095 392.077 462.421C414.657 462.747 433.226 444.706 433.551 422.127C433.551 422.091 433.547 422.057 433.547 422.021L351.79 420.842Z" fill="#0D395A"/>
<path d="M363.964 421.123C363.736 436.976 376.401 450.012 392.253 450.241C408.106 450.47 421.142 437.804 421.371 421.951C421.6 406.099 408.934 393.062 393.081 392.833C377.229 392.605 364.193 405.27 363.964 421.123Z" fill="#0D4C7B"/>
<path d="M393.081 392.833C377.229 392.604 364.193 405.27 363.964 421.123L421.371 421.951C421.6 406.099 408.934 393.062 393.081 392.833Z" fill="#658CD0"/>
<path d="M375.183 421.285C375.044 430.942 382.759 438.883 392.415 439.022C402.072 439.161 410.013 431.446 410.153 421.79C410.292 412.133 402.576 404.192 392.92 404.053C383.263 403.913 375.322 411.628 375.183 421.285Z" fill="#0D395A"/>
<path d="M450.826 405.122C450.599 405.238 429.308 401.83 429.308 401.83C426.975 404.87 423.423 406.73 419.596 406.914C410.401 407.355 401.407 407.76 393.62 408.108C386.356 408.433 380.728 414.576 381.035 421.841L381.036 421.852C381.326 428.719 386.837 434.215 393.706 434.486L438.986 436.269C446.431 436.562 456.33 432.036 460.979 426.213L450.826 405.122Z" fill="#0A3453"/>
<path d="M339.585 387.027C339.585 387.027 337.637 347.179 375.085 338.877V333.768H506.274V345.95C506.274 345.95 487.019 369.135 493.306 388.391C499.594 407.647 501.558 409.611 501.558 409.611H576.222C576.222 409.611 585.26 398.215 585.653 381.317C586.046 364.419 579.024 335.524 573.783 317.055C569.018 300.261 566.004 286.219 566.004 286.219L588.403 278.753C588.403 278.753 629.85 332.945 631.543 335.993C633.236 339.04 638.992 346.151 637.638 361.726C636.284 377.302 599.038 425.382 589.219 430.8C579.4 436.218 570.596 436.556 561.793 437.911C554.151 439.087 497.627 438.309 482.842 438.083C477.707 438.005 472.636 436.693 468.244 434.029C463.823 431.348 460.497 426.912 456.828 419.626L449.04 404.389L339.585 387.027Z" fill="#FFCF15"/>
<path d="M349.624 384.255L333.099 410.137C330.983 413.45 334.406 417.62 338.013 416.057C339.762 415.299 341.646 414.114 343.556 412.297C351.114 405.107 364.584 386.168 364.584 386.168L349.624 384.255Z" fill="#0A3453"/>
<path d="M468.114 388.917C468.106 388.914 468.139 388.786 468.211 388.54C468.293 388.271 468.403 387.911 468.543 387.453C468.825 386.496 469.163 385.06 469.408 383.183C469.829 379.458 469.637 373.767 466.851 367.564C465.493 364.471 463.481 361.31 460.764 358.41C458.033 355.531 454.659 352.869 450.722 350.749C446.798 348.614 442.367 346.938 437.618 345.872C432.868 344.806 427.818 344.325 422.652 344.325C417.48 344.324 412.438 344.783 407.6 345.429C402.761 346.081 398.115 346.883 393.744 347.881C384.994 349.848 377.38 352.759 371.491 356.115C365.581 359.449 361.391 363.086 358.775 365.818C357.455 367.18 356.51 368.312 355.877 369.085C355.578 369.459 355.343 369.753 355.167 369.973C355.004 370.172 354.918 370.271 354.91 370.265C354.91 370.265 356.026 368.465 358.628 365.678C361.21 362.891 365.388 359.189 371.309 355.795C377.209 352.378 384.857 349.414 393.636 347.413C398.023 346.399 402.68 345.584 407.532 344.923C412.384 344.269 417.449 343.803 422.652 343.804C427.85 343.804 432.938 344.292 437.731 345.374C442.522 346.456 446.993 348.159 450.953 350.328C454.925 352.482 458.33 355.187 461.08 358.114C463.817 361.062 465.838 364.278 467.189 367.414C469.963 373.706 470.097 379.461 469.61 383.207C469.332 385.095 468.959 386.532 468.644 387.483C468.483 387.936 468.356 388.291 468.261 388.557C468.172 388.798 468.123 388.92 468.114 388.917Z" fill="#0D395A"/>
<path d="M460.556 379.97C460.5 379.948 460.775 379.341 461.051 378.196C461.359 377.058 461.49 375.325 461.2 373.242C460.914 371.156 460.111 368.737 458.763 366.296C458.103 365.069 457.289 363.844 456.345 362.658C455.415 361.461 454.321 360.322 453.095 359.291C450.629 357.221 447.881 355.763 445.292 354.727C442.684 353.719 440.223 353.116 438.133 352.772C436.042 352.423 434.327 352.276 433.142 352.204C431.956 352.131 431.297 352.104 431.297 352.063C431.297 352.045 431.462 352.03 431.776 352.018C432.09 352.011 432.554 351.985 433.15 352.002C434.343 352.012 436.074 352.103 438.191 352.409C440.308 352.71 442.809 353.282 445.466 354.281C448.106 355.309 450.908 356.777 453.429 358.893C454.688 359.951 455.802 361.117 456.745 362.343C457.703 363.557 458.523 364.81 459.184 366.068C460.535 368.569 461.319 371.053 461.564 373.194C461.814 375.332 461.621 377.104 461.246 378.248C461.128 378.839 460.873 379.247 460.771 379.543C460.646 379.83 460.572 379.977 460.556 379.97Z" fill="#DCE9F1"/>
<g opacity="0.4">
<path d="M434.865 345.059C442.197 346.458 448.606 349.087 454.62 353.101C460.634 357.115 465.236 362.798 467.853 369.538C470.471 376.278 470.079 385.205 467.324 390.788L476.593 391.555C479.715 381.149 476.316 368.376 468.817 360.228C460.019 350.669 447.917 345.059 434.865 345.059Z" fill="black"/>
</g>
<path d="M431.912 333.769H350.818C346.08 333.769 342.239 329.928 342.239 325.19V272.236C342.239 267.498 346.08 263.657 350.818 263.657H431.912C436.65 263.657 440.491 267.498 440.491 272.236V325.19C440.49 329.928 436.65 333.769 431.912 333.769Z" fill="#0A3453"/>
<path d="M440.49 279.303C440.49 279.447 418.4 279.563 391.157 279.563C363.905 279.563 341.819 279.447 341.819 279.303C341.819 279.159 363.904 279.043 391.157 279.043C418.4 279.043 440.49 279.159 440.49 279.303Z" fill="#0D395A"/>
<path d="M506.21 338.41C506.21 338.554 476.725 338.67 440.362 338.67C403.986 338.67 374.507 338.553 374.507 338.41C374.507 338.267 403.986 338.15 440.362 338.15C476.725 338.15 506.21 338.267 506.21 338.41Z" fill="#0D395A"/>
<path d="M506.274 333.769C506.274 333.769 508.438 331.187 508.645 327.892C508.852 324.597 507.349 320.478 503.804 320.478H458.504C451.163 320.478 445.213 326.429 445.213 333.769H506.274Z" fill="#0A3453"/>
<path d="M566.006 286.219L558.128 269.789C555.974 265.117 557.692 259.574 562.11 256.938L585.667 242.887C586.899 242.152 588.307 241.764 589.741 241.764H594.832L596.871 274.973L589.017 277.977L593.987 286.061L566.006 286.219Z" fill="#FFCF15"/>
<path d="M594.906 242.97C594.906 242.97 602.966 244.818 603.98 257.244C604.994 269.67 596.871 273.537 596.871 273.537L594.906 242.97Z" fill="#A3C7E2"/>
<path d="M568.752 263.353C568.752 263.353 552.458 271.075 550.469 272.342C549.09 273.221 547.905 274.761 548.987 277.468C550.832 282.084 558.451 277.742 558.451 277.742L573.615 270.16C573.615 270.16 579.447 267.407 577.294 263.964C574.884 260.109 568.752 263.353 568.752 263.353Z" fill="#0D395A"/>
<path d="M545.693 260.536C545.693 260.536 560.997 263.16 562.296 263.506C563.595 263.852 568.704 266.277 568.964 267.836C569.224 269.395 568.964 273.984 568.964 273.984C568.964 273.984 568.042 274.737 567.464 273.235C566.886 271.733 566.973 268.762 566.973 268.762L564.115 267.662L565.674 270.433L565.934 276.928C565.934 276.928 563.938 276.746 563.55 275.192C563.163 273.638 563.169 271.906 563.169 271.906L561.084 270.14L562.643 272.252L563.169 276.928C563.169 276.928 561.648 277.42 561.169 276.382C560.691 275.344 560.651 272.252 560.651 272.252L554.772 270.198L550.878 272.366L544.756 269.011L545.693 260.536Z" fill="#FFBE9D"/>
<path d="M569.531 239.221C569.531 245.416 566.683 250.439 563.169 250.439C559.655 250.439 556.807 245.417 556.807 239.221C556.807 233.025 559.656 228.003 563.169 228.003C566.683 228.003 569.531 233.025 569.531 239.221Z" fill="#0D395A"/>
<path d="M564.214 246.934L567.709 259.046C569.27 258.254 569.595 256.698 569.336 255.47C568.459 251.321 567.964 248.367 567.001 244.735C566.883 244.366 564.214 246.934 564.214 246.934Z" fill="#0D395A"/>
<g opacity="0.4">
<path d="M495.033 393.567C494.687 392.569 494.335 391.547 494.001 390.499C493.69 389.522 493.324 388.508 493.056 387.537C492.577 385.799 492.3 384.007 492.182 382.972C486.284 406.99 495.289 423.902 510.755 425.091C533.349 426.828 560.896 428.092 572.04 425.167C592.35 419.836 599.803 402.903 601.58 400.111C603.357 397.318 619.515 367.792 609.614 339.358C599.713 310.924 582.457 280.737 582.457 280.737L566.007 286.22C566.007 286.22 569.021 300.262 573.786 317.056C579.027 335.526 586.048 364.421 585.656 381.318C585.263 398.216 576.225 409.612 576.225 409.612H501.561C501.559 409.612 499.959 408.008 495.033 393.567Z" fill="black"/>
</g>
<path d="M336.599 380.778L337.125 375.081L473.406 390.781C481.097 391.683 486.443 398.872 485.094 406.498L484.482 409.952L343.435 389.456C339.211 388.842 336.207 385.028 336.599 380.778Z" fill="#FFCF15"/>
<g opacity="0.6">
<path d="M336.599 380.778L337.125 375.081L473.406 390.781C481.097 391.683 486.443 398.872 485.094 406.498L484.482 409.952L343.435 389.456C339.211 388.842 336.207 385.028 336.599 380.778Z" fill="black"/>
</g>
<g opacity="0.3">
<path d="M601.579 418.904C601.579 418.904 631.58 385.907 637.765 359.964C639.843 359.943 644.687 360.154 647.058 360.652C647.058 360.652 629.316 408.877 601.579 418.904Z" fill="black"/>
</g>
<path d="M637.329 348.335C637.347 348.332 637.402 348.619 637.492 349.168C637.57 349.719 637.733 350.528 637.834 351.582C638.029 353.687 638.157 356.778 637.601 360.539C637.061 364.296 635.776 368.68 633.643 373.219C631.558 377.784 628.688 382.493 625.7 387.418C619.69 397.304 613.002 405.391 608.14 411.165C605.695 414.048 603.682 416.349 602.281 417.932C601.601 418.691 601.06 419.295 600.657 419.745C600.281 420.155 600.077 420.365 600.064 420.354C600.05 420.342 600.228 420.109 600.578 419.677C600.962 419.212 601.478 418.587 602.127 417.801C603.513 416.139 605.462 413.802 607.857 410.93C612.644 405.1 619.27 396.995 625.255 387.15C628.244 382.223 631.115 377.539 633.208 373.019C635.349 368.523 636.655 364.199 637.237 360.485C637.834 356.768 637.763 353.702 637.632 351.602C637.563 350.551 637.433 349.741 637.389 349.186C637.333 348.631 637.312 348.338 637.329 348.335Z" fill="#0D395A"/>
<path d="M585.469 418.664C585.368 418.767 583.217 416.824 580.664 414.324C578.11 411.824 576.122 409.715 576.223 409.612C576.323 409.509 578.474 411.452 581.028 413.952C583.581 416.451 585.569 418.561 585.469 418.664Z" fill="#0D395A"/>
<path d="M496.434 417.647C496.31 417.591 497.133 415.581 498.635 413.377C500.129 411.166 501.692 409.659 501.789 409.754C501.902 409.856 500.534 411.496 499.065 413.67C497.589 415.836 496.571 417.714 496.434 417.647Z" fill="#0D395A"/>
<path d="M438.792 436.699C438.67 436.597 440.944 435.15 442.884 431.5C443.851 429.699 444.648 427.348 444.889 424.655C445.137 421.973 444.748 418.938 443.433 416.117C442.068 413.319 439.954 411.106 437.712 409.611C435.467 408.103 433.138 407.243 431.13 406.862C427.073 406.074 424.518 406.931 424.515 406.772C424.511 406.755 424.664 406.709 424.962 406.637C425.261 406.58 425.696 406.435 426.276 406.382C427.426 406.203 429.136 406.149 431.198 406.5C433.258 406.843 435.658 407.685 437.979 409.212C440.295 410.725 442.491 412.995 443.903 415.893C445.265 418.813 445.648 421.948 445.367 424.699C445.093 427.462 444.238 429.858 443.208 431.675C442.183 433.499 441.065 434.794 440.203 435.575C439.797 435.993 439.41 436.239 439.178 436.436C438.935 436.622 438.803 436.713 438.792 436.699Z" fill="#0D395A"/>
<path d="M389.028 426.252C388.884 426.259 388.665 424.107 388.538 421.446C388.411 418.784 388.425 416.621 388.569 416.615C388.713 416.608 388.932 418.76 389.059 421.422C389.185 424.082 389.171 426.245 389.028 426.252Z" fill="#0D395A"/>
<path d="M392.642 426.259C392.499 426.277 392.108 424.13 391.767 421.464C391.426 418.797 391.266 416.621 391.409 416.603C391.552 416.585 391.943 418.731 392.284 421.398C392.624 424.064 392.785 426.241 392.642 426.259Z" fill="#0D395A"/>
<path d="M448.845 333.769C448.845 333.913 432.275 334.029 411.84 334.029C391.398 334.029 374.832 333.912 374.832 333.769C374.832 333.626 391.398 333.509 411.84 333.509C432.275 333.508 448.845 333.625 448.845 333.769Z" fill="#0D395A"/>
<path d="M395.189 333.718C395.045 333.718 394.929 314.74 394.929 291.336C394.929 267.923 395.046 248.95 395.189 248.95C395.333 248.95 395.449 267.924 395.449 291.336C395.449 314.741 395.332 333.718 395.189 333.718Z" fill="#0D395A"/>
<path d="M385.043 333.65C384.899 333.644 385.609 314.676 386.627 291.29C387.646 267.896 388.588 248.943 388.732 248.949C388.876 248.955 388.166 267.919 387.148 291.313C386.129 314.699 385.187 333.656 385.043 333.65Z" fill="#0D395A"/>
<path d="M362.092 449.296C362.078 449.308 361.928 449.156 361.653 448.855C361.386 448.548 360.961 448.119 360.486 447.507C359.498 446.315 358.173 444.494 356.796 442.085C354.031 437.314 351.291 429.859 351.325 421.327C351.361 412.792 354.164 405.36 356.968 400.611C358.365 398.213 359.704 396.403 360.703 395.22C361.183 394.612 361.612 394.187 361.881 393.882C362.158 393.584 362.31 393.433 362.324 393.445C362.337 393.457 362.212 393.631 361.961 393.951C361.718 394.277 361.315 394.722 360.862 395.346C359.917 396.562 358.633 398.392 357.289 400.792C354.59 405.547 351.883 412.905 351.846 421.328C351.813 429.749 354.459 437.127 357.118 441.905C358.442 444.316 359.711 446.157 360.646 447.381C361.094 448.009 361.493 448.457 361.733 448.785C361.981 449.109 362.105 449.284 362.092 449.296Z" fill="#0A3453"/>
<path d="M505.352 373.105L505.04 373.693L499.022 385.025L490.582 393.152L507.449 415.607L521.505 413.276C521.505 413.276 519.926 410.067 512.873 409.448L510.176 396.026L520.088 380.666" fill="#0A3453"/>
<path d="M490.582 393.152L507.449 415.608L521.504 413.277L519.57 411.427L508.036 412.694L492.377 391.424L490.582 393.152Z" fill="#658CD0"/>
<path d="M511.754 403.279C511.674 403.44 510.787 403.114 509.705 403.326C508.617 403.507 507.901 404.122 507.769 404C507.619 403.916 508.271 402.942 509.593 402.71C510.913 402.464 511.865 403.148 511.754 403.279Z" fill="#0D395A"/>
<path d="M510.971 399.97C510.847 400.093 510.083 399.367 508.926 399.335C507.769 399.291 506.959 399.964 506.843 399.834C506.785 399.779 506.907 399.516 507.266 399.235C507.617 398.956 508.23 398.686 508.946 398.709C509.661 398.733 510.255 399.043 510.587 399.345C510.928 399.648 511.033 399.918 510.971 399.97Z" fill="#0D395A"/>
<path d="M510.347 395.655C510.206 395.758 509.592 395.026 508.556 394.85C507.522 394.661 506.695 395.139 506.598 394.994C506.549 394.93 506.694 394.704 507.059 394.494C507.417 394.284 508.013 394.119 508.665 394.233C509.317 394.348 509.82 394.708 510.085 395.027C510.356 395.349 510.416 395.611 510.347 395.655Z" fill="#0D395A"/>
<path d="M513.555 391.696C513.398 391.782 512.87 391.049 511.903 390.629C510.949 390.181 510.049 390.271 510.01 390.095C509.935 389.94 510.984 389.52 512.161 390.058C513.342 390.584 513.72 391.649 513.555 391.696Z" fill="#0D395A"/>
<path d="M514.908 388.505C514.844 388.564 514.287 388.075 513.437 387.238C512.954 386.747 512.467 386.252 511.968 385.746C511.71 385.45 511.379 385.211 511.127 384.719C511.01 384.469 510.964 384.157 511.071 383.851C511.165 383.529 511.529 383.275 511.846 383.267C512.474 383.254 512.869 383.513 513.272 383.73C513.665 383.969 514.003 384.257 514.288 384.564C514.856 385.182 515.189 385.872 515.363 386.47C515.707 387.69 515.418 388.466 515.364 388.442C515.251 388.437 515.362 387.68 514.943 386.611C514.734 386.084 514.394 385.488 513.87 384.962C513.608 384.702 513.304 384.459 512.96 384.259C512.625 384.069 512.195 383.87 511.903 383.891C511.763 383.909 511.702 383.956 511.658 384.063C511.616 384.176 511.624 384.331 511.687 384.467C511.813 384.754 512.141 385.057 512.393 385.355C512.858 385.893 513.313 386.418 513.764 386.938C514.529 387.852 514.972 388.447 514.908 388.505Z" fill="#0D395A"/>
<path d="M515.48 388.839C515.413 388.846 515.344 388.098 515.964 387.126C516.571 386.204 518.053 385.079 520.005 385.681C520.152 385.77 520.286 385.953 520.307 386.147C520.332 386.343 520.273 386.501 520.212 386.62C520.082 386.866 519.916 387.005 519.782 387.146C519.494 387.429 519.189 387.673 518.883 387.879C518.271 388.293 517.652 388.552 517.12 388.703C516.047 389.002 515.354 388.9 515.356 388.83C515.348 388.73 516.014 388.669 516.977 388.284C517.456 388.092 518.007 387.812 518.55 387.408C518.821 387.207 519.091 386.976 519.346 386.714C519.475 386.577 519.606 386.448 519.657 386.337C519.705 386.202 519.693 386.241 519.665 386.208C519.611 386.163 519.413 386.136 519.233 386.125C519.053 386.112 518.873 386.114 518.698 386.131C518.347 386.162 518.013 386.247 517.711 386.368C517.103 386.608 516.642 387.002 516.322 387.389C515.683 388.18 515.581 388.863 515.48 388.839Z" fill="#0D395A"/>
<path d="M501.722 390.861C501.876 391.782 501.254 392.653 500.333 392.806C499.412 392.96 498.541 392.338 498.388 391.417C498.234 390.496 498.856 389.625 499.777 389.472C500.697 389.319 501.568 389.94 501.722 390.861Z" fill="#658CD0"/>
<path d="M556.552 383.908L561.062 413.193L597.525 407.768C596.793 404.317 576.889 400.13 576.889 400.13L574.769 381.248L556.552 383.908Z" fill="#0A3453"/>
<path d="M565.38 400.228C564.703 400.526 564.333 401.392 564.603 402.08C564.873 402.769 565.75 403.152 566.432 402.866C567.114 402.58 567.59 401.554 567.244 400.9C566.899 400.246 565.844 399.852 565.25 400.293" fill="#658CD0"/>
<path d="M561.062 413.193L560.723 410.223L595.81 406.132C595.81 406.132 597.538 406.597 597.525 407.767L561.062 413.193Z" fill="#658CD0"/>
<path d="M577.453 399.857C577.474 400.036 576.596 400.249 575.805 400.952C574.995 401.634 574.659 402.473 574.485 402.426C574.316 402.416 574.423 401.312 575.395 400.478C576.359 399.635 577.467 399.687 577.453 399.857Z" fill="#0D395A"/>
<path d="M581.513 400.869C581.58 401.036 580.853 401.453 580.361 402.296C579.843 403.124 579.812 403.961 579.634 403.98C579.471 404.033 579.192 403.008 579.825 401.972C580.447 400.931 581.484 400.7 581.513 400.869Z" fill="#0D395A"/>
<path d="M584.366 405.124C584.21 405.186 583.83 404.333 584.142 403.29C584.447 402.244 585.229 401.735 585.327 401.872C585.449 402.003 584.987 402.607 584.743 403.467C584.479 404.321 584.54 405.08 584.366 405.124Z" fill="#0D395A"/>
<path d="M576.492 395.607C576.442 395.78 575.588 395.656 574.592 395.874C573.591 396.072 572.858 396.526 572.743 396.387C572.621 396.274 573.287 395.501 574.464 395.26C575.639 395.012 576.559 395.454 576.492 395.607Z" fill="#0D395A"/>
<path d="M574.98 391.41C574.993 391.483 574.306 391.698 573.152 391.672C572.578 391.658 571.891 391.573 571.154 391.369C570.786 391.266 570.405 391.135 570.023 390.969C569.839 390.886 569.624 390.807 569.408 390.621C569.183 390.465 569.001 390.009 569.185 389.686C569.33 389.378 569.642 389.208 569.905 389.163C570.172 389.114 570.398 389.136 570.604 389.156C571.025 389.194 571.425 389.272 571.797 389.377C572.541 389.59 573.167 389.907 573.645 390.232C574.608 390.89 574.995 391.512 574.939 391.555C574.867 391.626 574.372 391.129 573.415 390.611C572.938 390.353 572.34 390.102 571.65 389.936C571.305 389.855 570.937 389.795 570.554 389.769C570.153 389.725 569.824 389.771 569.75 389.958C569.724 390.029 569.723 390.056 569.821 390.156C569.92 390.248 570.092 390.327 570.273 390.409C570.627 390.571 570.979 390.706 571.32 390.817C572.003 391.038 572.643 391.163 573.186 391.231C574.274 391.367 574.969 391.313 574.98 391.41Z" fill="#0D395A"/>
<path d="M574.786 391.7C574.727 391.737 574.279 391.151 574.042 390.008C573.927 389.441 573.883 388.739 573.994 387.972C574.052 387.589 574.148 387.192 574.294 386.794C574.454 386.402 574.643 385.881 575.322 385.699C575.681 385.632 576.022 385.869 576.161 386.095C576.318 386.324 576.374 386.532 576.448 386.737C576.578 387.153 576.633 387.572 576.632 387.967C576.633 388.76 576.411 389.453 576.133 389.969C575.561 391.02 574.85 391.343 574.826 391.285C574.753 391.204 575.323 390.768 575.733 389.779C575.935 389.291 576.086 388.665 576.055 387.977C576.041 387.634 575.982 387.277 575.865 386.927C575.75 386.548 575.558 386.257 575.419 386.318C575.237 386.342 574.973 386.68 574.869 387.011C574.731 387.366 574.631 387.722 574.564 388.068C574.434 388.761 574.428 389.407 574.481 389.943C574.59 391.02 574.879 391.658 574.786 391.7Z" fill="#0D395A"/>
<path d="M527.86 315.127L496.588 383.266L517.24 395.665L560.479 313.676" fill="#0D395A"/>
<path d="M579.429 397.221L556.989 400.819L543.56 320.682L477.213 325.492C475.455 325.6 473.681 325.452 471.982 324.986C453.346 319.88 455.869 296.122 457.665 292.313L549.478 289.676C559.437 289.39 568.018 296.639 569.4 306.506L579.429 397.221Z" fill="#0D395A"/>
<path d="M456.757 296.084L457.09 262.202C457.09 262.202 452.717 240.172 451.423 231.513C449.414 218.066 446.663 211.684 468.684 202.126L473.497 200.269L480.948 200.368C489.834 201.036 499.195 209.067 499.41 214.393L507.983 290.739L456.757 296.084Z" fill="#FFCF15"/>
<path d="M458.135 210.004C458.135 210.004 451.921 223.382 453.163 235.569L476.328 257.808C481.524 263.592 488.019 266.049 496.325 266.552L544.269 271.793L545.6 259.25L499.994 246.325C498.18 245.991 497.274 244.095 495.883 242.883L458.135 210.004Z" fill="#FFCF15"/>
<path d="M454.389 213.856C454.389 213.856 454.65 213.57 455.308 213.241C455.965 212.917 457.01 212.587 458.406 212.375C459.797 212.178 461.557 212.021 463.586 212.389C464.086 212.506 464.615 212.625 465.109 212.911C465.592 213.187 466.05 213.522 466.518 213.875C467.444 214.592 468.376 215.415 469.321 216.323C471.245 218.113 473.058 220.383 475.189 222.681C477.312 224.995 479.653 227.453 482.185 230.041C484.718 232.629 487.447 235.344 490.375 238.142C491.844 239.535 493.36 240.954 494.959 242.345C495.771 243.011 496.573 243.791 497.343 244.521C498.127 245.237 499.011 245.91 500.035 246.098L500.049 246.101L500.06 246.104C513.623 249.939 529.176 254.336 545.673 259.001L545.884 259.061L545.861 259.279C545.767 260.166 545.665 261.125 545.563 262.087C545.209 265.422 544.858 268.721 544.529 271.821L544.502 272.08L544.243 272.052C537.268 271.286 530.484 270.542 523.952 269.825C520.686 269.465 517.483 269.113 514.351 268.768C511.215 268.451 508.15 268.142 505.162 267.84C502.176 267.513 499.272 267.169 496.46 266.759C493.652 266.35 490.916 265.828 488.405 264.887C485.886 263.968 483.639 262.652 481.617 261.242C479.589 259.833 477.744 258.358 476.014 256.916C469.163 251.067 464.133 245.844 460.642 242.282C458.908 240.488 457.583 239.08 456.694 238.119C456.263 237.646 455.93 237.281 455.691 237.019C455.468 236.769 455.364 236.631 455.364 236.631C455.364 236.631 455.492 236.746 455.727 236.984C455.975 237.238 456.318 237.591 456.765 238.05C457.695 239 459.044 240.377 460.778 242.147C464.308 245.665 469.378 250.85 476.238 256.645C477.968 258.071 479.816 259.535 481.835 260.924C483.849 262.315 486.066 263.6 488.547 264.496C491.023 265.414 493.722 265.921 496.523 266.32C499.326 266.721 502.228 267.057 505.211 267.376C508.197 267.671 511.262 267.974 514.398 268.284C517.532 268.624 520.736 268.972 524.002 269.326C530.536 270.037 537.322 270.776 544.299 271.536L544.013 271.766C544.342 268.666 544.692 265.366 545.045 262.031C545.147 261.069 545.249 260.11 545.343 259.223L545.531 259.501C529.039 254.816 513.492 250.4 499.933 246.548L499.957 246.553C498.772 246.328 497.84 245.588 497.037 244.856C496.232 244.09 495.497 243.367 494.667 242.681C493.062 241.277 491.549 239.851 490.081 238.45C487.157 235.637 484.436 232.909 481.912 230.307C479.388 227.705 477.058 225.233 474.945 222.903C472.816 220.581 471.027 218.309 469.131 216.519C468.198 215.61 467.28 214.784 466.37 214.067C465.913 213.714 465.458 213.378 464.997 213.108C464.544 212.838 464.029 212.714 463.545 212.595C461.565 212.213 459.809 212.344 458.429 212.517C457.042 212.705 456.001 213.009 455.342 213.307C454.681 213.611 454.407 213.879 454.389 213.856Z" fill="#0D395A"/>
<path d="M466.355 170.884L468.683 203.865C469.063 209.25 473.542 213.424 478.94 213.424C484.883 213.424 489.591 208.399 489.201 202.469C488.995 199.33 488.808 196.759 488.808 196.759C488.808 196.759 496.792 195.517 496.891 187.535C496.948 182.924 496.153 172.461 495.471 164.446C495.01 159.027 490.474 154.867 485.035 154.867H480.212C471.908 155.351 465.641 162.595 466.355 170.884Z" fill="#FFBE9D"/>
<path d="M488.822 196.643C488.822 196.643 483.777 197.053 478.415 193.685C478.415 193.685 480.875 199.43 488.841 198.711L488.822 196.643Z" fill="#EB996E"/>
<path d="M493.675 174.703C493.696 175.305 493.204 175.82 492.576 175.853C491.949 175.886 491.422 175.427 491.401 174.825C491.38 174.223 491.872 173.708 492.499 173.674C493.127 173.641 493.654 174.101 493.675 174.703Z" fill="#0D395A"/>
<path d="M494.095 172.45C493.954 172.599 493.09 171.96 491.863 171.963C490.638 171.949 489.737 172.58 489.604 172.429C489.539 172.362 489.683 172.094 490.075 171.809C490.461 171.525 491.119 171.248 491.883 171.252C492.647 171.256 493.29 171.538 493.66 171.825C494.037 172.115 494.165 172.383 494.095 172.45Z" fill="#0D395A"/>
<path d="M482.156 174.703C482.177 175.305 481.685 175.819 481.057 175.853C480.43 175.887 479.903 175.427 479.882 174.825C479.861 174.223 480.353 173.708 480.98 173.674C481.608 173.641 482.135 174.101 482.156 174.703Z" fill="#0D395A"/>
<path d="M482.037 172.679C481.896 172.828 481.031 172.189 479.805 172.192C478.58 172.178 477.679 172.809 477.546 172.658C477.481 172.592 477.623 172.323 478.017 172.038C478.403 171.754 479.061 171.477 479.825 171.48C480.589 171.484 481.232 171.766 481.602 172.053C481.977 172.344 482.106 172.613 482.037 172.679Z" fill="#0D395A"/>
<path d="M486.489 181.777C486.483 181.707 487.246 181.576 488.481 181.418C488.794 181.386 489.091 181.323 489.144 181.109C489.218 180.883 489.087 180.545 488.935 180.181C488.64 179.423 488.332 178.628 488.009 177.796C486.723 174.4 485.791 171.607 485.928 171.556C486.065 171.505 487.219 174.217 488.506 177.613C488.816 178.451 489.112 179.249 489.394 180.013C489.512 180.369 489.716 180.773 489.556 181.242C489.472 181.476 489.242 181.646 489.041 181.7C488.84 181.761 488.664 181.765 488.509 181.774C487.265 181.841 486.493 181.847 486.489 181.777Z" fill="#0D395A"/>
<path d="M482.878 182.626C483.078 182.614 483.08 183.946 484.22 184.891C485.358 185.839 486.777 185.69 486.788 185.876C486.806 185.959 486.472 186.134 485.873 186.151C485.285 186.171 484.427 185.982 483.73 185.404C483.035 184.824 482.736 184.051 482.69 183.505C482.639 182.948 482.787 182.618 482.878 182.626Z" fill="#0D395A"/>
<path d="M482.353 167.871C482.232 168.205 481.007 168.047 479.568 168.22C478.125 168.365 476.964 168.786 476.774 168.487C476.689 168.344 476.891 168.03 477.36 167.707C477.825 167.385 478.567 167.078 479.431 166.982C480.295 166.888 481.086 167.025 481.61 167.238C482.139 167.451 482.405 167.713 482.353 167.871Z" fill="#0D395A"/>
<path d="M493.644 168.9C493.428 169.179 492.583 168.89 491.567 168.876C490.551 168.827 489.69 169.063 489.492 168.772C489.405 168.631 489.541 168.351 489.917 168.088C490.287 167.825 490.907 167.61 491.606 167.631C492.304 167.653 492.909 167.906 493.263 168.191C493.621 168.477 493.74 168.764 493.644 168.9Z" fill="#0D395A"/>
<path d="M469.047 176.876C468.911 176.817 463.562 175.254 463.736 180.711C463.91 186.169 469.354 184.868 469.358 184.711C469.362 184.555 469.047 176.876 469.047 176.876Z" fill="#FFBE9D"/>
<path d="M467.625 182.697C467.6 182.68 467.532 182.767 467.374 182.845C467.22 182.922 466.952 182.98 466.664 182.882C466.081 182.689 465.566 181.789 465.508 180.806C465.478 180.31 465.567 179.833 465.731 179.436C465.885 179.031 466.134 178.744 466.423 178.683C466.71 178.607 466.921 178.774 466.993 178.926C467.071 179.076 467.04 179.186 467.069 179.195C467.085 179.208 467.183 179.1 467.132 178.876C467.106 178.768 467.038 178.642 466.906 178.541C466.771 178.439 466.577 178.391 466.376 178.419C465.956 178.461 465.59 178.861 465.41 179.297C465.207 179.736 465.096 180.271 465.129 180.829C465.199 181.928 465.795 182.939 466.591 183.142C466.978 183.23 467.295 183.104 467.456 182.97C467.619 182.829 467.644 182.706 467.625 182.697Z" fill="#EB996E"/>
<path d="M466.01 176.691C466.842 176.49 468.282 177.258 468.637 178.037C468.992 178.816 469.07 179.7 469.424 180.479C469.778 181.259 470.578 181.964 471.411 181.767C471.986 181.631 472.397 181.092 472.548 180.522C472.7 179.951 472.638 179.348 472.564 178.762C472.242 176.213 471.706 173.686 471.604 171.119C471.501 168.552 471.867 165.885 473.215 163.698C474.563 161.511 477.039 159.903 479.599 160.109C481.295 160.246 482.851 161.13 484.536 161.366C486.534 161.646 488.646 160.941 490.076 159.517C490.259 159.335 491.111 158.773 491.111 158.773C491.111 158.641 490.986 157.501 490.537 157.085C487.194 153.993 481.17 153.13 476.754 154.242C472.338 155.353 468.199 158.471 466.299 162.609C464.4 166.747 464.963 172.503 466.01 176.691Z" fill="#0D395A"/>
<path d="M495.56 163.213C495.56 163.213 474.617 156.475 465.557 174.594C465.557 174.594 464.203 170.06 464.203 167.629C464.203 166.006 465.174 156.337 475.122 153.296C475.122 153.296 490.109 147.576 495.56 163.213Z" fill="#FFCF15"/>
<path d="M477.565 163.665C478.305 164.861 479.626 165.677 481.026 165.805C482.427 165.932 483.873 165.367 484.816 164.325C485.23 165.357 486.339 166.066 487.45 166.008C488.56 165.95 489.59 165.129 489.893 164.059C490.501 164.649 491.135 165.255 491.93 165.547C492.726 165.838 493.734 165.728 494.257 165.061C494.789 164.381 494.634 163.346 494.112 162.659C493.59 161.971 492.786 161.562 491.989 161.23C489.501 160.191 486.758 159.67 484.086 160.032C481.415 160.394 478.827 161.689 477.157 163.806" fill="#0D395A"/>
<g opacity="0.4">
<path d="M495.56 163.213C495.56 163.213 493.177 160.378 488.9 160.189C482.723 159.916 471.159 163.39 465.557 174.594C465.557 174.594 464.203 170.06 464.203 167.629C464.203 166.006 465.174 156.337 475.122 153.296C475.122 153.296 490.109 147.576 495.56 163.213Z" fill="black"/>
</g>
<path d="M466.432 172.473C469.538 167.722 473.819 163.793 478.633 160.786C483.447 157.779 491.408 154.804 496.894 153.348C498.541 152.911 500.258 152.529 501.937 152.819C503.616 153.109 505.26 154.227 505.677 155.88C506.199 157.948 502.528 161.14 500.803 162.395C499.078 163.65 495.56 165.491 495.56 165.491C495.56 165.491 495.607 161.655 489.467 160.864C481.115 159.787 466.432 172.473 466.432 172.473Z" fill="#FFCF15"/>
<g opacity="0.3">
<path d="M459.061 240.521C461.219 245.734 463.398 252.159 466.527 256.854C469.657 261.549 473.839 265.706 479.044 267.885C485.576 270.619 493.307 271.062 499.808 268.256C500.338 268.027 501.376 267.736 501.281 267.167C501.281 267.167 499.126 266.925 498.465 266.814C485.326 264.598 483.902 262.976 477.614 258.006C473.694 254.907 465.004 245.539 459.061 240.521Z" fill="black"/>
</g>
<path d="M500.817 278.461C500.842 278.472 500.676 278.92 500.271 279.679C499.87 280.441 499.177 281.49 498.147 282.641C496.111 284.961 492.484 287.475 487.972 288.866C483.46 290.253 479.178 290.511 476.13 290.641C474.599 290.698 473.361 290.71 472.506 290.706C471.65 290.702 471.177 290.681 471.176 290.646C471.175 290.61 471.646 290.562 472.5 290.504C473.455 290.443 474.666 290.366 476.111 290.273C479.146 290.05 483.383 289.733 487.818 288.369C492.246 287.002 495.815 284.598 497.879 282.39C499.979 280.193 500.716 278.399 500.817 278.461Z" fill="#0D395A"/>
<path d="M557.39 403.214C557.381 403.215 557.354 403.11 557.311 402.904C557.265 402.669 557.205 402.366 557.131 401.984C556.978 401.139 556.762 399.951 556.487 398.438C555.944 395.32 555.17 390.868 554.215 385.38C552.341 374.317 549.762 359.089 546.913 342.269C545.643 334.656 544.428 327.37 543.319 320.724L543.578 320.926C531.923 321.778 521.961 322.507 514.873 323.025C511.371 323.263 508.581 323.452 506.629 323.585C505.696 323.64 504.965 323.683 504.433 323.714C504.204 323.723 504.018 323.731 503.867 323.737C503.74 323.74 503.674 323.738 503.674 323.731C503.673 323.724 503.738 323.712 503.864 323.696C504.014 323.679 504.199 323.658 504.427 323.633C504.957 323.583 505.687 323.514 506.617 323.427C508.566 323.261 511.353 323.025 514.85 322.728C521.934 322.163 531.892 321.37 543.541 320.441L543.763 320.423L543.8 320.643C544.919 327.287 546.145 334.571 547.427 342.183C550.217 359.013 552.743 374.25 554.578 385.32C555.464 390.819 556.183 395.28 556.687 398.405C556.921 399.925 557.104 401.118 557.234 401.967C557.288 402.352 557.33 402.658 557.363 402.896C557.39 403.104 557.399 403.212 557.39 403.214Z" fill="#0A3453"/>
<path d="M550.297 313.539C550.391 313.658 548.643 315.159 546.661 317.18C544.671 319.195 543.198 320.966 543.078 320.874C542.968 320.794 544.273 318.858 546.29 316.815C548.3 314.766 550.216 313.43 550.297 313.539Z" fill="#0A3453"/>
<path d="M489.001 203.174C489.018 203.169 489.059 203.281 489.122 203.501C489.195 203.719 489.256 204.049 489.312 204.482C489.413 205.343 489.358 206.639 488.825 208.118C488.285 209.578 487.235 211.222 485.531 212.444C483.838 213.674 481.505 214.311 479.115 214.157C476.72 213.995 474.519 213.094 472.886 211.823C471.234 210.565 470.103 209.042 469.346 207.693C468.599 206.328 468.2 205.129 467.991 204.292C467.889 203.872 467.821 203.544 467.793 203.318C467.76 203.093 467.751 202.974 467.769 202.97C467.882 202.932 468.129 204.875 469.665 207.509C470.445 208.803 471.571 210.252 473.174 211.439C474.757 212.638 476.861 213.481 479.149 213.637C481.431 213.783 483.643 213.191 485.256 212.051C486.882 210.918 487.921 209.371 488.482 207.986C489.036 206.584 489.148 205.34 489.11 204.497C489.075 203.648 488.948 203.186 489.001 203.174Z" fill="#0D395A"/>
<path d="M503.107 246.841C503.071 246.845 502.997 246.473 502.893 245.798C502.782 245.008 502.647 244.055 502.489 242.937C502.158 240.389 501.732 237.11 501.261 233.484C500.808 229.787 500.452 226.433 500.234 224.002C500.124 222.787 500.046 221.802 500.006 221.12C499.965 220.438 499.959 220.059 499.995 220.056C500.031 220.052 500.105 220.424 500.208 221.099C500.316 221.889 500.447 222.844 500.6 223.962C500.918 226.511 501.326 229.792 501.778 233.421C502.231 237.115 502.623 240.464 502.855 242.894C502.972 244.109 503.053 245.094 503.095 245.776C503.137 246.459 503.143 246.837 503.107 246.841Z" fill="#0D395A"/>
<path d="M228.881 214V206.727H233.241V207.509H229.761V209.966H232.915V210.747H229.761V214H228.881ZM234.75 214V206.727H235.631V213.219H239.011V214H234.75ZM240.375 214V206.727H244.764V207.509H241.256V209.966H244.537V210.747H241.256V213.219H244.821V214H240.375ZM246.778 206.727L248.653 209.753H248.709L250.584 206.727H251.621L249.334 210.364L251.621 214H250.584L248.709 211.031H248.653L246.778 214H245.741L248.084 210.364L245.741 206.727H246.778ZM253.066 214H252.142L254.813 206.727H255.722L258.392 214H257.469L255.296 207.878H255.239L253.066 214ZM253.407 211.159H257.128V211.94H253.407V211.159ZM260.406 206.727V214H259.525V206.727H260.406Z" fill="white"/>
</svg>
