<svg width="305" height="67" viewBox="0 0 305 67" fill="none" xmlns="http://www.w3.org/2000/svg">
<path d="M156.808 65C154.933 65 154.889 64.0332 156.676 62.0996L184.713 31.9531L171.573 4.88281C170.636 2.94922 171.119 1.98242 173.023 1.98242H177.33C178.59 1.98242 179.483 2.55371 180.011 3.69629L190.338 26.6357L210.377 3.69629C211.373 2.55371 212.53 1.98242 213.849 1.98242H219.913C221.788 1.98242 221.832 2.94922 220.045 4.88281L194.073 33.0518L208.399 62.0996C209.366 64.0332 208.883 65 206.949 65H202.335C201.046 65 200.152 64.4287 199.654 63.2861L188.492 38.3252L166.651 63.2861C165.655 64.4287 164.498 65 163.18 65H156.808Z" fill="#0D395A" stroke="#0D395A" stroke-width="3"/>
<path d="M105.128 65C103.663 65 103.121 64.1943 103.502 62.583L116.905 4.39941C117.286 2.78809 118.209 1.98242 119.674 1.98242H158.126C159.737 1.98242 160.396 2.6416 160.103 3.95996L159.356 7.21191C159.034 8.53027 158.067 9.18945 156.456 9.18945H124.244L119.762 28.7012H149.337C150.948 28.7012 151.593 29.3604 151.27 30.6787L150.523 33.9307C150.23 35.249 149.278 35.9082 147.667 35.9082H118.092L113.038 57.793H146.568C148.18 57.793 148.824 58.4521 148.502 59.7705L147.755 63.0225C147.462 64.3408 146.51 65 144.898 65H105.128Z" fill="#0D395A" stroke="#0D395A" stroke-width="3"/>
<path d="M55.206 65C53.7412 65 53.1992 64.1943 53.58 62.583L66.9834 4.39941C67.3642 2.78809 68.2871 1.98242 69.7519 1.98242H73.7949C75.2597 1.98242 75.8017 2.78809 75.4209 4.39941L63.1162 57.793H92.2519C93.8632 57.793 94.5078 58.4521 94.1855 59.7705L93.4384 63.0225C93.1455 64.3408 92.1933 65 90.582 65H55.206Z" fill="#0D395A" stroke="#0D395A" stroke-width="3"/>
<path d="M3.96579 65C2.50094 65 1.95895 64.1943 2.33981 62.583L15.7431 4.39941C16.124 2.78809 17.0468 1.98242 18.5117 1.98242H54.3271C55.9384 1.98242 56.5976 2.6416 56.3047 3.95996L55.5576 7.21191C55.2353 8.53027 54.2685 9.18945 52.6572 9.18945H23.082L18.292 30.0195H44.0879C45.6992 30.0195 46.3437 30.6787 46.0215 31.9971L45.2744 35.249C44.9814 36.5674 44.0293 37.2266 42.4179 37.2266H16.622L10.7773 62.583C10.3964 64.1943 9.4736 65 8.00875 65H3.96579Z" fill="#0D395A" stroke="#0D395A" stroke-width="3"/>
<path d="M282.587 65C281.122 65 280.58 64.1943 280.961 62.583L294.364 4.39941C294.745 2.78809 295.668 1.98242 297.133 1.98242H301.176C302.641 1.98242 303.183 2.78809 302.802 4.39941L289.398 62.583C289.018 64.1943 288.095 65 286.63 65H282.587Z" fill="white" stroke="white" stroke-width="3"/>
<path d="M217.504 65C216.01 65 215.834 64.0332 216.977 62.0996L250.814 4.66309C251.869 2.87598 253.041 1.98242 254.33 1.98242H260.482C261.684 1.98242 262.445 2.87598 262.768 4.66309L272.699 62.0996C273.021 64.0332 272.406 65 270.854 65H266.854C265.302 65 264.408 64.2822 264.174 62.8467L261.669 48.3008H234.643L226.073 62.8467C225.224 64.2822 224.008 65 222.426 65H217.504ZM238.949 41.0938H260.395L257.318 23.5156C256.938 21.4062 256.63 19.1064 256.396 16.6162C256.161 14.0967 256.044 11.7529 256.044 9.58496H255.868C255.341 11.665 254.521 13.7891 253.407 15.957C252.294 18.125 250.902 20.6445 249.232 23.5156L238.949 41.0938Z" fill="white" stroke="white" stroke-width="3"/>
</svg>
