<svg width="378" height="378" viewBox="0 0 378 378" fill="none" xmlns="http://www.w3.org/2000/svg">
<g clip-path="url(#clip0_7_41)">
<rect width="378" height="378" fill="white"/>
<mask id="mask0_7_41" style="mask-type:alpha" maskUnits="userSpaceOnUse" x="0" y="0" width="378" height="378">
<rect x="6" y="6" width="366" height="366" fill="#D9D9D9" stroke="#FFCF15" stroke-width="12"/>
</mask>
<g mask="url(#mask0_7_41)">
<rect x="6" y="6" width="366" height="366" fill="#FFCF15" stroke="#FFCF15" stroke-width="12"/>
<mask id="path-3-outside-1_7_41" maskUnits="userSpaceOnUse" x="41" y="226" width="224" height="68" fill="black">
<rect fill="white" x="41" y="226" width="224" height="68"/>
<path d="M44.9658 292C43.501 292 42.959 291.194 43.3398 289.583L56.7432 231.399C57.124 229.788 58.0469 228.982 59.5117 228.982H95.3271C96.9385 228.982 97.5977 229.642 97.3047 230.96L96.5576 234.212C96.2354 235.53 95.2686 236.189 93.6572 236.189H64.082L59.292 257.02H85.0879C86.6992 257.02 87.3438 257.679 87.0215 258.997L86.2744 262.249C85.9814 263.567 85.0293 264.227 83.418 264.227H57.6221L51.7773 289.583C51.3965 291.194 50.4736 292 49.0088 292H44.9658ZM96.2061 292C94.7412 292 94.1992 291.194 94.5801 289.583L107.983 231.399C108.364 229.788 109.287 228.982 110.752 228.982H114.795C116.26 228.982 116.802 229.788 116.421 231.399L104.116 284.793H133.252C134.863 284.793 135.508 285.452 135.186 286.771L134.438 290.022C134.146 291.341 133.193 292 131.582 292H96.2061ZM146.128 292C144.663 292 144.121 291.194 144.502 289.583L157.905 231.399C158.286 229.788 159.209 228.982 160.674 228.982H199.126C200.737 228.982 201.396 229.642 201.104 230.96L200.356 234.212C200.034 235.53 199.067 236.189 197.456 236.189H165.244L160.762 255.701H190.337C191.948 255.701 192.593 256.36 192.271 257.679L191.523 260.931C191.23 262.249 190.278 262.908 188.667 262.908H159.092L154.038 284.793H187.568C189.18 284.793 189.824 285.452 189.502 286.771L188.755 290.022C188.462 291.341 187.51 292 185.898 292H146.128ZM197.808 292C195.933 292 195.889 291.033 197.676 289.1L225.713 258.953L212.573 231.883C211.636 229.949 212.119 228.982 214.023 228.982H218.33C219.59 228.982 220.483 229.554 221.011 230.696L231.338 253.636L251.377 230.696C252.373 229.554 253.53 228.982 254.849 228.982H260.913C262.788 228.982 262.832 229.949 261.045 231.883L235.073 260.052L249.399 289.1C250.366 291.033 249.883 292 247.949 292H243.335C242.046 292 241.152 291.429 240.654 290.286L229.492 265.325L207.651 290.286C206.655 291.429 205.498 292 204.18 292H197.808Z"/>
</mask>
<path d="M44.9658 292C43.501 292 42.959 291.194 43.3398 289.583L56.7432 231.399C57.124 229.788 58.0469 228.982 59.5117 228.982H95.3271C96.9385 228.982 97.5977 229.642 97.3047 230.96L96.5576 234.212C96.2354 235.53 95.2686 236.189 93.6572 236.189H64.082L59.292 257.02H85.0879C86.6992 257.02 87.3438 257.679 87.0215 258.997L86.2744 262.249C85.9814 263.567 85.0293 264.227 83.418 264.227H57.6221L51.7773 289.583C51.3965 291.194 50.4736 292 49.0088 292H44.9658ZM96.2061 292C94.7412 292 94.1992 291.194 94.5801 289.583L107.983 231.399C108.364 229.788 109.287 228.982 110.752 228.982H114.795C116.26 228.982 116.802 229.788 116.421 231.399L104.116 284.793H133.252C134.863 284.793 135.508 285.452 135.186 286.771L134.438 290.022C134.146 291.341 133.193 292 131.582 292H96.2061ZM146.128 292C144.663 292 144.121 291.194 144.502 289.583L157.905 231.399C158.286 229.788 159.209 228.982 160.674 228.982H199.126C200.737 228.982 201.396 229.642 201.104 230.96L200.356 234.212C200.034 235.53 199.067 236.189 197.456 236.189H165.244L160.762 255.701H190.337C191.948 255.701 192.593 256.36 192.271 257.679L191.523 260.931C191.23 262.249 190.278 262.908 188.667 262.908H159.092L154.038 284.793H187.568C189.18 284.793 189.824 285.452 189.502 286.771L188.755 290.022C188.462 291.341 187.51 292 185.898 292H146.128ZM197.808 292C195.933 292 195.889 291.033 197.676 289.1L225.713 258.953L212.573 231.883C211.636 229.949 212.119 228.982 214.023 228.982H218.33C219.59 228.982 220.483 229.554 221.011 230.696L231.338 253.636L251.377 230.696C252.373 229.554 253.53 228.982 254.849 228.982H260.913C262.788 228.982 262.832 229.949 261.045 231.883L235.073 260.052L249.399 289.1C250.366 291.033 249.883 292 247.949 292H243.335C242.046 292 241.152 291.429 240.654 290.286L229.492 265.325L207.651 290.286C206.655 291.429 205.498 292 204.18 292H197.808Z" fill="#0D395A"/>
<path d="M43.3398 289.583L45.2862 290.043L45.2888 290.032L43.3398 289.583ZM56.7432 231.399L54.7968 230.939L54.7942 230.95L56.7432 231.399ZM97.3047 230.96L99.2539 231.408L99.2555 231.401L99.2571 231.394L97.3047 230.96ZM96.5576 234.212L98.5004 234.687L98.5037 234.673L98.5068 234.66L96.5576 234.212ZM64.082 236.189V234.189H62.4897L62.1329 235.741L64.082 236.189ZM59.292 257.02L57.3429 256.571L56.7799 259.02H59.292V257.02ZM87.0215 258.997L85.0787 258.522L85.0754 258.536L85.0723 258.549L87.0215 258.997ZM86.2744 262.249L84.3252 261.801L84.3236 261.808L84.322 261.815L86.2744 262.249ZM57.6221 264.227V262.227H56.0306L55.6732 263.777L57.6221 264.227ZM51.7773 289.583L53.7237 290.043L53.7262 290.032L51.7773 289.583ZM44.9658 290C44.7699 290 44.7315 289.971 44.7853 289.993C44.8169 290.006 44.8732 290.033 44.9392 290.085C45.0066 290.137 45.0692 290.204 45.1201 290.279C45.2245 290.434 45.2252 290.544 45.2228 290.507C45.2198 290.462 45.2213 290.318 45.2862 290.043L41.3935 289.123C41.1605 290.109 41.0591 291.409 41.8012 292.512C42.6066 293.709 43.9247 294 44.9658 294V290ZM45.2888 290.032L58.6921 231.848L54.7942 230.95L41.3909 289.134L45.2888 290.032ZM58.6895 231.859C58.8171 231.32 58.9828 231.14 59.0363 231.093C59.0648 231.068 59.1635 230.982 59.5117 230.982V226.982C58.395 226.982 57.2999 227.299 56.4056 228.08C55.5363 228.839 55.0501 229.868 54.7968 230.939L58.6895 231.859ZM59.5117 230.982H95.3271V226.982H59.5117V230.982ZM95.3271 230.982C95.6047 230.982 95.7491 231.012 95.7995 231.027C95.8446 231.04 95.7449 231.02 95.6158 230.891C95.5515 230.827 95.4949 230.75 95.4517 230.665C95.4091 230.582 95.3886 230.509 95.3793 230.459C95.3625 230.368 95.3861 230.374 95.3523 230.526L99.2571 231.394C99.4798 230.392 99.453 229.071 98.4442 228.063C97.5451 227.163 96.3037 226.982 95.3271 226.982V230.982ZM95.3555 230.512L94.6084 233.764L98.5068 234.66L99.2539 231.408L95.3555 230.512ZM94.6148 233.737C94.58 233.88 94.5405 233.953 94.5196 233.985C94.5013 234.013 94.4858 234.028 94.4641 234.043C94.4166 234.075 94.2081 234.189 93.6572 234.189V238.189C94.7176 238.189 95.7982 237.974 96.7175 237.348C97.6735 236.696 98.242 235.744 98.5004 234.687L94.6148 233.737ZM93.6572 234.189H64.082V238.189H93.6572V234.189ZM62.1329 235.741L57.3429 256.571L61.2411 257.468L66.0312 236.638L62.1329 235.741ZM59.292 259.02H85.0879V255.02H59.292V259.02ZM85.0879 259.02C85.3659 259.02 85.5078 259.049 85.5542 259.063C85.5952 259.075 85.486 259.051 85.3498 258.912C85.2819 258.843 85.2233 258.76 85.1794 258.67C85.1362 258.582 85.1164 258.506 85.1079 258.454C85.0927 258.36 85.1168 258.366 85.0787 258.522L88.9643 259.472C89.2058 258.484 89.2185 257.147 88.2098 256.116C87.3123 255.198 86.058 255.02 85.0879 255.02V259.02ZM85.0723 258.549L84.3252 261.801L88.2236 262.697L88.9707 259.445L85.0723 258.549ZM84.322 261.815C84.2909 261.955 84.2546 262.023 84.2386 262.049C84.2254 262.07 84.2163 262.078 84.2022 262.088C84.1683 262.111 83.9711 262.227 83.418 262.227V266.227C84.4761 266.227 85.5608 266.012 86.479 265.377C87.4371 264.713 87.9904 263.746 88.2268 262.683L84.322 261.815ZM83.418 262.227H57.6221V266.227H83.418V262.227ZM55.6732 263.777L49.8284 289.134L53.7262 290.032L59.571 264.676L55.6732 263.777ZM49.831 289.123C49.7034 289.663 49.5377 289.842 49.4842 289.889C49.4557 289.914 49.357 290 49.0088 290V294C50.1255 294 51.2206 293.683 52.1149 292.902C52.9842 292.143 53.4705 291.115 53.7237 290.043L49.831 289.123ZM49.0088 290H44.9658V294H49.0088V290ZM94.5801 289.583L96.5265 290.043L96.529 290.032L94.5801 289.583ZM107.983 231.399L106.037 230.939L106.034 230.95L107.983 231.399ZM116.421 231.399L114.474 230.939L114.472 230.95L116.421 231.399ZM104.116 284.793L102.167 284.344L101.603 286.793H104.116V284.793ZM135.186 286.771L133.243 286.296L133.239 286.309L133.236 286.323L135.186 286.771ZM134.438 290.022L132.489 289.575L132.488 289.582L132.486 289.589L134.438 290.022ZM96.2061 290C96.0101 290 95.9717 289.971 96.0256 289.993C96.0572 290.006 96.1135 290.033 96.1794 290.085C96.2469 290.137 96.3095 290.204 96.3604 290.279C96.4647 290.434 96.4655 290.544 96.463 290.507C96.46 290.462 96.4615 290.318 96.5264 290.043L92.6337 289.123C92.4007 290.109 92.2993 291.409 93.0415 292.512C93.8468 293.709 95.1649 294 96.2061 294V290ZM96.529 290.032L109.932 231.848L106.034 230.95L92.6311 289.134L96.529 290.032ZM109.93 231.859C110.057 231.32 110.223 231.14 110.276 231.093C110.305 231.068 110.404 230.982 110.752 230.982V226.982C109.635 226.982 108.54 227.299 107.646 228.08C106.777 228.839 106.29 229.868 106.037 230.939L109.93 231.859ZM110.752 230.982H114.795V226.982H110.752V230.982ZM114.795 230.982C114.991 230.982 115.029 231.011 114.975 230.99C114.944 230.977 114.888 230.949 114.822 230.898C114.754 230.845 114.692 230.779 114.641 230.703C114.536 230.548 114.536 230.439 114.538 230.475C114.541 230.52 114.539 230.665 114.475 230.939L118.367 231.859C118.6 230.874 118.702 229.574 117.959 228.47C117.154 227.273 115.836 226.982 114.795 226.982V230.982ZM114.472 230.95L102.167 284.344L106.065 285.242L118.37 231.849L114.472 230.95ZM104.116 286.793H133.252V282.793H104.116V286.793ZM133.252 286.793C133.53 286.793 133.672 286.823 133.718 286.836C133.759 286.848 133.65 286.825 133.514 286.686C133.446 286.616 133.387 286.534 133.343 286.444C133.3 286.356 133.28 286.279 133.272 286.227C133.257 286.133 133.281 286.14 133.243 286.296L137.128 287.245C137.37 286.257 137.383 284.921 136.374 283.889C135.476 282.971 134.222 282.793 133.252 282.793V286.793ZM133.236 286.323L132.489 289.575L136.388 290.47L137.135 287.218L133.236 286.323ZM132.486 289.589C132.455 289.729 132.419 289.797 132.403 289.822C132.389 289.843 132.38 289.851 132.366 289.861C132.332 289.885 132.135 290 131.582 290V294C132.64 294 133.725 293.786 134.643 293.15C135.601 292.487 136.154 291.52 136.391 290.456L132.486 289.589ZM131.582 290H96.2061V294H131.582V290ZM144.502 289.583L146.448 290.043L146.451 290.032L144.502 289.583ZM157.905 231.399L155.959 230.939L155.956 230.95L157.905 231.399ZM201.104 230.96L203.053 231.408L203.054 231.401L203.056 231.394L201.104 230.96ZM200.356 234.212L202.299 234.687L202.303 234.673L202.306 234.66L200.356 234.212ZM165.244 236.189V234.189H163.652L163.295 235.742L165.244 236.189ZM160.762 255.701L158.812 255.253L158.25 257.701H160.762V255.701ZM192.271 257.679L190.328 257.204L190.324 257.217L190.321 257.231L192.271 257.679ZM191.523 260.931L189.574 260.483L189.573 260.49L189.571 260.497L191.523 260.931ZM159.092 262.908V260.908H157.501L157.143 262.458L159.092 262.908ZM154.038 284.793L152.089 284.343L151.524 286.793H154.038V284.793ZM189.502 286.771L187.559 286.296L187.556 286.309L187.553 286.323L189.502 286.771ZM188.755 290.022L186.806 289.575L186.804 289.582L186.803 289.589L188.755 290.022ZM146.128 290C145.932 290 145.894 289.971 145.947 289.993C145.979 290.006 146.035 290.033 146.101 290.085C146.169 290.137 146.231 290.204 146.282 290.279C146.387 290.434 146.387 290.544 146.385 290.507C146.382 290.462 146.383 290.318 146.448 290.043L142.556 289.123C142.323 290.109 142.221 291.409 142.963 292.512C143.769 293.709 145.087 294 146.128 294V290ZM146.451 290.032L159.854 231.848L155.956 230.95L142.553 289.134L146.451 290.032ZM159.852 231.859C159.979 231.32 160.145 231.14 160.198 231.093C160.227 231.068 160.326 230.982 160.674 230.982V226.982C159.557 226.982 158.462 227.299 157.568 228.08C156.698 228.839 156.212 229.868 155.959 230.939L159.852 231.859ZM160.674 230.982H199.126V226.982H160.674V230.982ZM199.126 230.982C199.403 230.982 199.548 231.012 199.598 231.027C199.643 231.04 199.544 231.02 199.415 230.891C199.35 230.827 199.294 230.75 199.251 230.665C199.208 230.582 199.187 230.509 199.178 230.459C199.161 230.368 199.185 230.374 199.151 230.526L203.056 231.394C203.279 230.392 203.252 229.071 202.243 228.063C201.344 227.163 200.103 226.982 199.126 226.982V230.982ZM199.154 230.512L198.407 233.764L202.306 234.66L203.053 231.408L199.154 230.512ZM198.414 233.737C198.379 233.88 198.339 233.953 198.318 233.985C198.3 234.013 198.285 234.028 198.263 234.043C198.215 234.075 198.007 234.189 197.456 234.189V238.189C198.516 238.189 199.597 237.974 200.516 237.348C201.472 236.696 202.041 235.744 202.299 234.687L198.414 233.737ZM197.456 234.189H165.244V238.189H197.456V234.189ZM163.295 235.742L158.812 255.253L162.711 256.149L167.193 236.637L163.295 235.742ZM160.762 257.701H190.337V253.701H160.762V257.701ZM190.337 257.701C190.615 257.701 190.757 257.731 190.803 257.744C190.844 257.756 190.735 257.733 190.599 257.594C190.531 257.524 190.472 257.442 190.428 257.352C190.385 257.264 190.365 257.187 190.357 257.135C190.342 257.041 190.366 257.048 190.328 257.204L194.213 258.154C194.455 257.166 194.468 255.829 193.459 254.797C192.561 253.879 191.307 253.701 190.337 253.701V257.701ZM190.321 257.231L189.574 260.483L193.473 261.378L194.22 258.127L190.321 257.231ZM189.571 260.497C189.54 260.637 189.504 260.705 189.488 260.73C189.474 260.751 189.465 260.76 189.451 260.769C189.417 260.793 189.22 260.908 188.667 260.908V264.908C189.725 264.908 190.81 264.694 191.728 264.058C192.686 263.395 193.239 262.428 193.476 261.365L189.571 260.497ZM188.667 260.908H159.092V264.908H188.667V260.908ZM157.143 262.458L152.089 284.343L155.987 285.243L161.041 263.358L157.143 262.458ZM154.038 286.793H187.568V282.793H154.038V286.793ZM187.568 286.793C187.846 286.793 187.988 286.823 188.035 286.836C188.076 286.848 187.966 286.825 187.83 286.686C187.762 286.616 187.704 286.534 187.66 286.444C187.617 286.356 187.597 286.279 187.588 286.227C187.573 286.133 187.597 286.14 187.559 286.296L191.445 287.245C191.686 286.257 191.699 284.921 190.69 283.889C189.793 282.971 188.538 282.793 187.568 282.793V286.793ZM187.553 286.323L186.806 289.575L190.704 290.47L191.451 287.218L187.553 286.323ZM186.803 289.589C186.771 289.729 186.735 289.797 186.719 289.822C186.706 289.843 186.697 289.851 186.683 289.861C186.649 289.885 186.452 290 185.898 290V294C186.957 294 188.041 293.786 188.959 293.15C189.918 292.487 190.471 291.52 190.707 290.456L186.803 289.589ZM185.898 290H146.128V294H185.898V290ZM197.676 289.1L196.211 287.738L196.207 287.742L197.676 289.1ZM225.713 258.953L227.177 260.315L228.11 259.312L227.512 258.08L225.713 258.953ZM212.573 231.883L210.774 232.755L210.774 232.756L212.573 231.883ZM221.011 230.696L222.834 229.875L222.831 229.867L222.827 229.858L221.011 230.696ZM231.338 253.636L229.514 254.457L230.794 257.299L232.844 254.952L231.338 253.636ZM251.377 230.696L252.883 232.012L252.884 232.011L251.377 230.696ZM261.045 231.883L259.576 230.525L259.575 230.527L261.045 231.883ZM235.073 260.052L233.603 258.696L232.672 259.705L233.28 260.936L235.073 260.052ZM249.399 289.1L247.606 289.984L247.611 289.994L249.399 289.1ZM240.654 290.286L242.488 289.487L242.484 289.478L242.48 289.47L240.654 290.286ZM229.492 265.325L231.318 264.509L230.043 261.658L227.987 264.008L229.492 265.325ZM207.651 290.286L206.146 288.969L206.144 288.972L207.651 290.286ZM197.808 290C197.654 290 197.565 289.99 197.527 289.983C197.484 289.976 197.538 289.979 197.645 290.033C197.759 290.09 197.951 290.216 198.115 290.454C198.287 290.702 198.357 290.968 198.366 291.184C198.375 291.38 198.335 291.5 198.33 291.515C198.324 291.532 198.335 291.496 198.393 291.399C198.513 291.199 198.745 290.889 199.145 290.457L196.207 287.742C195.713 288.277 195.28 288.813 194.965 289.338C194.677 289.816 194.333 290.533 194.37 291.366C194.418 292.421 195.046 293.202 195.845 293.605C196.5 293.935 197.227 294 197.808 294V290ZM199.14 290.462L227.177 260.315L224.248 257.591L196.211 287.738L199.14 290.462ZM227.512 258.08L214.372 231.009L210.774 232.756L223.914 259.826L227.512 258.08ZM214.373 231.01C214.284 230.827 214.222 230.675 214.179 230.552C214.137 230.429 214.119 230.348 214.112 230.305C214.097 230.209 214.143 230.359 214.022 230.602C213.961 230.723 213.878 230.826 213.789 230.903C213.703 230.977 213.634 231.009 213.612 231.017C213.592 231.026 213.611 231.015 213.684 231.004C213.757 230.992 213.868 230.982 214.023 230.982V226.982C212.913 226.982 211.228 227.245 210.444 228.813C209.746 230.209 210.277 231.73 210.774 232.755L214.373 231.01ZM214.023 230.982H218.33V226.982H214.023V230.982ZM218.33 230.982C218.651 230.982 218.799 231.052 218.868 231.096C218.936 231.14 219.061 231.245 219.195 231.534L222.827 229.858C222.433 229.005 221.847 228.253 221.022 227.726C220.198 227.199 219.269 226.982 218.33 226.982V230.982ZM219.187 231.517L229.514 254.457L233.162 252.815L222.834 229.875L219.187 231.517ZM232.844 254.952L252.883 232.012L249.871 229.381L229.832 252.32L232.844 254.952ZM252.884 232.011C253.564 231.231 254.198 230.982 254.849 230.982V226.982C252.863 226.982 251.182 227.876 249.869 229.382L252.884 232.011ZM254.849 230.982H260.913V226.982H254.849V230.982ZM260.913 230.982C261.067 230.982 261.156 230.993 261.194 230.999C261.237 231.007 261.182 231.003 261.076 230.95C260.962 230.892 260.77 230.766 260.605 230.528C260.434 230.28 260.364 230.015 260.354 229.798C260.345 229.602 260.386 229.482 260.391 229.467C260.397 229.45 260.386 229.487 260.328 229.584C260.208 229.783 259.975 230.094 259.576 230.525L262.514 233.24C263.008 232.705 263.44 232.17 263.756 231.644C264.043 231.166 264.388 230.449 264.35 229.617C264.302 228.561 263.675 227.78 262.876 227.378C262.221 227.047 261.494 226.982 260.913 226.982V230.982ZM259.575 230.527L233.603 258.696L236.544 261.407L262.515 233.239L259.575 230.527ZM233.28 260.936L247.606 289.984L251.193 288.215L236.867 259.167L233.28 260.936ZM247.611 289.994C247.702 290.178 247.767 290.33 247.811 290.452C247.855 290.575 247.873 290.655 247.88 290.697C247.895 290.79 247.848 290.632 247.973 290.38C248.036 290.256 248.121 290.151 248.211 290.074C248.297 290 248.366 289.969 248.385 289.962C248.402 289.955 248.38 289.966 248.302 289.978C248.225 289.99 248.11 290 247.949 290V294C249.058 294 250.763 293.745 251.551 292.169C251.918 291.435 251.931 290.672 251.825 290.04C251.721 289.412 251.481 288.791 251.188 288.205L247.611 289.994ZM247.949 290H243.335V294H247.949V290ZM243.335 290C242.989 290 242.837 289.926 242.775 289.886C242.718 289.85 242.607 289.76 242.488 289.487L238.821 291.085C239.2 291.955 239.784 292.722 240.621 293.257C241.452 293.788 242.391 294 243.335 294V290ZM242.48 289.47L231.318 264.509L227.666 266.142L238.829 291.103L242.48 289.47ZM227.987 264.008L206.146 288.969L209.157 291.603L230.997 266.642L227.987 264.008ZM206.144 288.972C205.464 289.751 204.83 290 204.18 290V294C206.166 294 207.846 293.106 209.159 291.6L206.144 288.972ZM204.18 290H197.808V294H204.18V290Z" fill="#0D395A" mask="url(#path-3-outside-1_7_41)"/>
<mask id="path-5-outside-2_7_41" maskUnits="userSpaceOnUse" x="255" y="226" width="91" height="68" fill="black">
<rect fill="white" x="255" y="226" width="91" height="68"/>
<path d="M258.504 292C257.01 292 256.834 291.033 257.977 289.1L291.814 231.663C292.869 229.876 294.041 228.982 295.33 228.982H301.482C302.684 228.982 303.445 229.876 303.768 231.663L313.699 289.1C314.021 291.033 313.406 292 311.854 292H307.854C306.302 292 305.408 291.282 305.174 289.847L302.669 275.301H275.643L267.073 289.847C266.224 291.282 265.008 292 263.426 292H258.504ZM279.949 268.094H301.395L298.318 250.516C297.938 248.406 297.63 246.106 297.396 243.616C297.161 241.097 297.044 238.753 297.044 236.585H296.868C296.341 238.665 295.521 240.789 294.407 242.957C293.294 245.125 291.902 247.645 290.232 250.516L279.949 268.094ZM323.587 292C322.122 292 321.58 291.194 321.961 289.583L335.364 231.399C335.745 229.788 336.668 228.982 338.133 228.982H342.176C343.641 228.982 344.183 229.788 343.802 231.399L330.398 289.583C330.018 291.194 329.095 292 327.63 292H323.587Z"/>
</mask>
<path d="M258.504 292C257.01 292 256.834 291.033 257.977 289.1L291.814 231.663C292.869 229.876 294.041 228.982 295.33 228.982H301.482C302.684 228.982 303.445 229.876 303.768 231.663L313.699 289.1C314.021 291.033 313.406 292 311.854 292H307.854C306.302 292 305.408 291.282 305.174 289.847L302.669 275.301H275.643L267.073 289.847C266.224 291.282 265.008 292 263.426 292H258.504ZM279.949 268.094H301.395L298.318 250.516C297.938 248.406 297.63 246.106 297.396 243.616C297.161 241.097 297.044 238.753 297.044 236.585H296.868C296.341 238.665 295.521 240.789 294.407 242.957C293.294 245.125 291.902 247.645 290.232 250.516L279.949 268.094ZM323.587 292C322.122 292 321.58 291.194 321.961 289.583L335.364 231.399C335.745 229.788 336.668 228.982 338.133 228.982H342.176C343.641 228.982 344.183 229.788 343.802 231.399L330.398 289.583C330.018 291.194 329.095 292 327.63 292H323.587Z" fill="white"/>
<path d="M257.977 289.1L259.698 290.117L259.7 290.115L257.977 289.1ZM291.814 231.663L290.092 230.647L290.091 230.648L291.814 231.663ZM303.768 231.663L305.738 231.322L305.737 231.315L305.736 231.308L303.768 231.663ZM313.699 289.1L315.672 288.771L315.67 288.759L313.699 289.1ZM305.174 289.847L307.148 289.524L307.146 289.516L307.145 289.507L305.174 289.847ZM302.669 275.301L304.64 274.961L304.354 273.301H302.669V275.301ZM275.643 275.301V273.301H274.5L273.919 274.286L275.643 275.301ZM267.073 289.847L268.794 290.865L268.796 290.862L267.073 289.847ZM279.949 268.094L278.223 267.084L276.462 270.094H279.949V268.094ZM301.395 268.094V270.094H303.775L303.365 267.749L301.395 268.094ZM298.318 250.516L300.288 250.171L300.287 250.16L298.318 250.516ZM297.396 243.616L295.404 243.801L295.404 243.804L297.396 243.616ZM297.044 236.585H299.044V234.585H297.044V236.585ZM296.868 236.585V234.585H295.312L294.929 236.093L296.868 236.585ZM290.232 250.516L291.959 251.526L291.961 251.521L290.232 250.516ZM258.504 290C258.306 290 258.414 289.961 258.633 290.088C258.758 290.16 258.901 290.278 259.02 290.449C259.138 290.618 259.196 290.787 259.219 290.917C259.26 291.14 259.196 291.206 259.264 291.001C259.325 290.819 259.455 290.53 259.698 290.117L256.255 288.082C255.927 288.636 255.651 289.193 255.469 289.736C255.296 290.257 255.155 290.926 255.284 291.633C255.43 292.439 255.901 293.129 256.628 293.55C257.265 293.918 257.955 294 258.504 294V290ZM259.7 290.115L293.538 232.678L290.091 230.648L256.253 288.084L259.7 290.115ZM293.537 232.68C294.462 231.112 295.108 230.982 295.33 230.982V226.982C292.974 226.982 291.276 228.64 290.092 230.647L293.537 232.68ZM295.33 230.982H301.482V226.982H295.33V230.982ZM301.482 230.982C301.53 230.982 301.515 230.99 301.472 230.97C301.428 230.95 301.415 230.93 301.433 230.95C301.491 231.019 301.67 231.298 301.799 232.018L305.736 231.308C305.543 230.241 305.18 229.18 304.477 228.355C303.706 227.451 302.653 226.982 301.482 226.982V230.982ZM301.797 232.004L311.728 289.44L315.67 288.759L305.738 231.322L301.797 232.004ZM311.726 289.428C311.787 289.793 311.789 290.03 311.775 290.168C311.762 290.302 311.739 290.285 311.792 290.201C311.819 290.159 311.858 290.113 311.906 290.071C311.955 290.03 311.999 290.005 312.028 289.992C312.079 289.969 312.044 290 311.854 290V294C313.044 294 314.368 293.605 315.167 292.349C315.873 291.24 315.861 289.906 315.672 288.771L311.726 289.428ZM311.854 290H307.854V294H311.854V290ZM307.854 290C307.617 290 307.465 289.972 307.377 289.946C307.334 289.934 307.307 289.922 307.293 289.915C307.278 289.907 307.273 289.903 307.272 289.902C307.272 289.902 307.271 289.901 307.268 289.898C307.265 289.894 307.257 289.883 307.245 289.861C307.221 289.814 307.178 289.712 307.148 289.524L303.2 290.169C303.375 291.238 303.84 292.276 304.767 293.021C305.677 293.752 306.784 294 307.854 294V290ZM307.145 289.507L304.64 274.961L300.698 275.64L303.203 290.186L307.145 289.507ZM302.669 273.301H275.643V277.301H302.669V273.301ZM273.919 274.286L265.35 288.832L268.796 290.862L277.366 276.316L273.919 274.286ZM265.352 288.828C264.839 289.696 264.255 290 263.426 290V294C265.76 294 267.609 292.869 268.794 290.865L265.352 288.828ZM263.426 290H258.504V294H263.426V290ZM279.949 270.094H301.395V266.094H279.949V270.094ZM303.365 267.749L300.288 250.171L296.348 250.86L299.424 268.439L303.365 267.749ZM300.287 250.16C299.917 248.115 299.617 245.872 299.387 243.429L295.404 243.804C295.643 246.341 295.958 248.698 296.35 250.871L300.287 250.16ZM299.387 243.431C299.157 240.963 299.044 238.682 299.044 236.585H295.044C295.044 238.824 295.165 241.23 295.404 243.801L299.387 243.431ZM297.044 234.585H296.868V238.585H297.044V234.585ZM294.929 236.093C294.444 238.009 293.682 239.992 292.628 242.043L296.186 243.871C297.359 241.586 298.238 239.321 298.807 237.076L294.929 236.093ZM292.628 242.043C291.535 244.171 290.162 246.659 288.504 249.51L291.961 251.521C293.643 248.63 295.053 246.079 296.186 243.871L292.628 242.043ZM288.506 249.506L278.223 267.084L281.676 269.104L291.959 251.526L288.506 249.506ZM321.961 289.583L323.907 290.043L323.91 290.032L321.961 289.583ZM335.364 231.399L333.418 230.939L333.415 230.95L335.364 231.399ZM343.802 231.399L341.855 230.939L341.853 230.95L343.802 231.399ZM330.398 289.583L332.345 290.043L332.347 290.032L330.398 289.583ZM323.587 290C323.391 290 323.353 289.971 323.406 289.993C323.438 290.006 323.494 290.033 323.56 290.085C323.628 290.137 323.69 290.204 323.741 290.279C323.846 290.434 323.846 290.544 323.844 290.507C323.841 290.462 323.842 290.318 323.907 290.043L320.015 289.123C319.782 290.109 319.68 291.409 320.422 292.512C321.228 293.709 322.546 294 323.587 294V290ZM323.91 290.032L337.313 231.848L333.415 230.95L320.012 289.134L323.91 290.032ZM337.311 231.859C337.438 231.32 337.604 231.14 337.657 231.093C337.686 231.068 337.785 230.982 338.133 230.982V226.982C337.016 226.982 335.921 227.299 335.027 228.08C334.157 228.839 333.671 229.868 333.418 230.939L337.311 231.859ZM338.133 230.982H342.176V226.982H338.133V230.982ZM342.176 230.982C342.372 230.982 342.41 231.011 342.356 230.99C342.325 230.977 342.268 230.949 342.202 230.898C342.135 230.845 342.072 230.779 342.021 230.703C341.917 230.548 341.916 230.439 341.919 230.475C341.922 230.52 341.92 230.665 341.855 230.939L345.748 231.859C345.981 230.874 346.083 229.574 345.34 228.47C344.535 227.273 343.217 226.982 342.176 226.982V230.982ZM341.853 230.95L328.449 289.134L332.347 290.032L345.751 231.848L341.853 230.95ZM328.452 289.123C328.324 289.663 328.159 289.842 328.105 289.889C328.077 289.914 327.978 290 327.63 290V294C328.747 294 329.842 293.683 330.736 292.902C331.605 292.143 332.092 291.115 332.345 290.043L328.452 289.123ZM327.63 290H323.587V294H327.63V290Z" fill="white" mask="url(#path-5-outside-2_7_41)"/>
<path d="M132.065 -3H129.065L129.065 3.52675e-06L129.065 143.316C129.065 143.918 129.046 144.367 129.028 144.795C129.021 144.982 129.013 145.164 129.007 145.354C128.999 145.63 128.992 145.985 129.021 146.34C129.048 146.685 129.122 147.237 129.396 147.818C130.129 149.374 131.557 149.787 132.34 149.907C132.95 150.001 133.706 150.001 134.34 150C134.39 150 134.44 150 134.489 150H143.649C147.325 150 150.743 148.927 152.66 145.853L152.691 145.805L152.719 145.755L189 82.3451L225.281 145.755L225.309 145.805L225.34 145.853C227.257 148.927 230.674 150 234.351 150H243.511C243.56 150 243.61 150 243.66 150C244.293 150.001 245.05 150.001 245.66 149.907C246.443 149.787 247.871 149.374 248.604 147.819C248.878 147.237 248.952 146.685 248.979 146.34C249.008 145.985 249.001 145.63 248.993 145.354C248.987 145.164 248.979 144.981 248.972 144.795C248.954 144.366 248.935 143.918 248.935 143.316L248.935 -4.47171e-06L248.935 -3H245.935H132.065Z" fill="#0D395A" stroke="#0D395A" stroke-width="6"/>
</g>
</g>
<defs>
<clipPath id="clip0_7_41">
<rect width="378" height="378" fill="white"/>
</clipPath>
</defs>
</svg>
